<svg width="66" height="60" viewBox="0 0 66 60" fill="none" xmlns="http://www.w3.org/2000/svg">
<rect x="1" y="1" width="64" height="58" rx="1" fill="#F0F1F2"/>
<rect x="1" y="1" width="64" height="58" rx="1" stroke="#304830" stroke-width="2"/>
<path d="M20.4131 40.1636C19.8381 39.834 19.381 39.3859 19.0417 38.8193C18.7024 38.2527 18.5328 37.6172 18.5328 36.9128V28.0925L14.9618 26.0842C14.6369 25.8859 14.3954 25.6522 14.2372 25.3831C14.0791 25.114 14 24.8151 14 24.4862C14 24.1574 14.0791 23.8587 14.2372 23.5904C14.3954 23.3221 14.6369 23.0887 14.9618 22.8904L30.2573 14.4269C30.5289 14.2736 30.8092 14.1641 31.0984 14.0985C31.3875 14.0328 31.6843 14 31.9886 14C32.293 14 32.5898 14.0328 32.8789 14.0985C33.1681 14.1641 33.449 14.2732 33.7217 14.4258L51.0382 23.9491C51.3545 24.1387 51.5938 24.3767 51.7563 24.663C51.9188 24.9494 52 25.2583 52 25.5899V37.8753C52 38.1976 51.8924 38.4678 51.6772 38.6858C51.462 38.9039 51.1953 39.0129 50.8771 39.0129C50.559 39.0129 50.2928 38.9039 50.0786 38.6858C49.8644 38.4678 49.7573 38.1976 49.7573 37.8753V25.7649L45.4445 28.0925V36.9128C45.4445 37.6172 45.2749 38.2527 44.9356 38.8193C44.5963 39.3859 44.1392 39.834 43.5642 40.1636L33.731 45.5625C33.4521 45.7229 33.1681 45.836 32.8789 45.9016C32.5898 45.9672 32.293 46 31.9886 46C31.6843 46 31.3875 45.9672 31.0984 45.9016C30.8092 45.836 30.5252 45.7229 30.2463 45.5625L20.4131 40.1636ZM31.4711 32.6426C31.6724 32.7593 31.8521 32.8176 32.0102 32.8176C32.1683 32.8176 32.348 32.7593 32.5493 32.6426L47.3077 24.4873L32.5493 16.3758C32.348 16.2591 32.1683 16.2007 32.0102 16.2007C31.8521 16.2007 31.6724 16.2591 31.4711 16.3758L16.6696 24.4873L31.4711 32.6426ZM31.428 43.6374C31.6293 43.7541 31.8162 43.8124 31.9886 43.8124C32.1611 43.8124 32.348 43.7541 32.5493 43.6374L42.555 38.151C42.785 38.0051 42.9503 37.8374 43.0509 37.6478C43.1516 37.4582 43.2019 37.2176 43.2019 36.9259V29.3438L33.744 34.5808C33.4651 34.7413 33.1818 34.8543 32.8943 34.9199C32.6068 34.9855 32.3049 35.0183 31.9886 35.0183C31.6724 35.0183 31.3705 34.9855 31.083 34.9199C30.7955 34.8543 30.5122 34.7413 30.2333 34.5808L20.7754 29.3438V36.9259C20.7754 37.1592 20.8257 37.3853 20.9264 37.6041C21.027 37.8228 21.1923 38.0051 21.4223 38.151L31.428 43.6374Z" fill="#3D543D"/>
</svg>
