<svg width="30" height="30" viewBox="0 0 30 30" fill="none" xmlns="http://www.w3.org/2000/svg">
<path fill-rule="evenodd" clip-rule="evenodd" d="M25.3229 21.6751C25.2886 22.1534 25.1497 22.6184 24.9159 23.0371L19.0112 19.199L20.1209 17.8973C20.174 17.8338 20.2487 17.7921 20.3306 17.7802C20.4125 17.7683 20.4959 17.787 20.565 17.8327L24.7844 20.5739C24.9678 20.6891 25.1154 20.8532 25.2106 21.0478C25.3057 21.2423 25.3446 21.4596 25.3229 21.6751ZM22.3539 24.8854C23.1713 24.6452 23.9137 24.2 24.5106 23.5922L18.5635 19.7261L18.0447 20.3361C17.9013 20.5061 17.7063 20.6246 17.4893 20.6735C17.2723 20.7224 17.0452 20.699 16.8428 20.6069C13.4612 19.0718 10.7515 16.362 9.21669 12.9803C9.12427 12.7783 9.10047 12.5515 9.14893 12.3347C9.19739 12.1179 9.31544 11.9228 9.48508 11.7793L10.0951 11.2601L6.22993 5.31247C5.62329 5.91026 5.17913 6.65288 4.93943 7.47013C4.79736 7.87437 4.7299 8.30105 4.74033 8.7294C4.86916 17.3129 12.5111 24.9551 21.0959 25.0837C21.5238 25.0948 21.9502 25.0278 22.3542 24.8861L22.3539 24.8854ZM8.14945 4.50094C8.18556 4.49801 8.22265 4.49606 8.25998 4.49606C8.45759 4.49461 8.65227 4.54387 8.82541 4.63913C8.99855 4.73439 9.14435 4.87247 9.2489 5.04017L11.9907 9.2596C12.0367 9.32842 12.0556 9.41184 12.0437 9.49376C12.0318 9.57569 11.9899 9.6503 11.9263 9.70319L10.6238 10.8114L6.78697 4.90817C7.20568 4.67369 7.671 4.53455 8.14969 4.5007L8.14945 4.50094ZM25.1582 19.9988L20.9388 17.2573C20.7294 17.1217 20.4779 17.0667 20.2311 17.1026C19.9842 17.1385 19.7588 17.2629 19.5968 17.4525L17.5204 19.8925C17.4733 19.9493 17.4087 19.989 17.3367 20.0052C17.2647 20.0215 17.1894 20.0135 17.1224 19.9825C13.8944 18.5158 11.3076 15.9284 9.84181 12.6999C9.81079 12.6329 9.80285 12.5575 9.81922 12.4855C9.8356 12.4135 9.87538 12.349 9.93233 12.302L12.3703 10.2273C12.5599 10.0656 12.6844 9.84058 12.7206 9.59405C12.7569 9.34753 12.7025 9.09622 12.5675 8.88677L9.8257 4.66613C9.64244 4.37896 9.38362 4.14782 9.07764 3.99808C8.77165 3.84834 8.43033 3.78578 8.09113 3.81726C6.28605 3.96903 5.00775 5.12362 4.28821 7.25054C4.12253 7.72885 4.04329 8.23283 4.05422 8.73891C4.09366 10.9608 4.59 13.1508 5.51234 15.1726C6.42067 17.1847 7.68906 19.0138 9.255 20.5698C10.811 22.1354 12.64 23.4035 14.6519 24.3115C16.6737 25.2334 18.8635 25.7298 21.0852 25.7698H21.1615C21.6424 25.7725 22.1202 25.6934 22.5745 25.5359C24.6992 24.8166 25.8548 23.5368 26.0056 21.7327C26.0377 21.3937 25.9756 21.0524 25.8261 20.7464C25.6765 20.4405 25.4454 20.1818 25.1582 19.9988Z" fill="#262B33" stroke="#262B33" stroke-width="0.2"/>
</svg>
