<svg width="428" height="420" viewBox="0 0 428 420" fill="none" xmlns="http://www.w3.org/2000/svg">
<path d="M168.994 146.344L127.026 170.667L143.694 199.026C144.016 199.792 144.576 200.432 145.291 200.852C147.28 201.975 159.058 208.805 159.706 209.179C160.211 209.471 160.776 209.645 161.358 209.687C161.939 209.729 162.523 209.638 163.065 209.422C163.607 209.206 164.092 208.87 164.486 208.439C164.879 208.007 165.169 207.493 165.335 206.933L183.436 154.726L168.994 146.344Z" fill="#3D543D"/>
<path opacity="0.2" d="M168.994 146.344L127.026 170.667L143.694 199.026C144.016 199.792 144.576 200.432 145.291 200.852C147.28 201.975 159.058 208.805 159.706 209.179C160.211 209.471 160.776 209.645 161.358 209.687C161.939 209.729 162.523 209.638 163.065 209.422C163.607 209.206 164.092 208.87 164.486 208.439C164.879 208.007 165.169 207.493 165.335 206.933L183.436 154.726L168.994 146.344Z" fill="#304830"/>
<path d="M141.468 179.013L158.137 207.372C158.455 208.092 158.987 208.697 159.661 209.105C160.334 209.512 161.116 209.703 161.902 209.652C162.687 209.6 163.438 209.308 164.052 208.815C164.666 208.322 165.114 207.653 165.335 206.897L183.436 154.689L141.468 179.013Z" fill="#3D543D"/>
<path d="M215.816 0.897015L57.5508 92.3196C56.4897 93.0079 55.6061 93.9373 54.9719 95.0321C54.3378 96.1268 53.971 97.356 53.9014 98.6195V208.54C53.9686 209.799 54.3347 211.024 54.9694 212.114C55.604 213.203 56.4889 214.125 57.5508 214.804L70.5699 222.108C71.7021 222.678 72.9519 222.975 74.2193 222.975C75.4867 222.975 76.7365 222.678 77.8687 222.108L236.143 130.631C237.202 129.941 238.085 129.011 238.719 127.917C239.353 126.822 239.72 125.594 239.792 124.331V14.41C239.724 13.1511 239.358 11.9264 238.723 10.8373C238.088 9.74814 237.204 8.82581 236.143 8.14654L223.133 0.842233C221.993 0.279081 220.738 -0.009285 219.468 0.000227946C218.197 0.0097409 216.946 0.316868 215.816 0.897015Z" fill="#3D543D"/>
<path opacity="0.3" d="M239.728 13.7434C239.436 11.9173 237.949 11.2599 236.133 12.3008L77.8777 103.751C76.7993 104.425 75.9156 105.369 75.314 106.49L55.0508 94.9399C55.6589 93.8859 56.5176 92.9983 57.5506 92.356L215.825 0.8969C216.957 0.328935 218.207 0.0332031 219.474 0.0332031C220.741 0.0332031 221.99 0.328935 223.123 0.8969L236.133 8.20121C237.091 8.81675 237.907 9.62933 238.527 10.5849C239.147 11.5405 239.556 12.6172 239.728 13.7434Z" fill="white"/>
<path d="M74.2375 220.392V110.462C74.3071 109.199 74.674 107.972 75.3082 106.878C75.9425 105.785 76.8261 104.857 77.8869 104.171L236.143 12.7666C238.141 11.607 239.792 12.5475 239.792 14.8666V124.751C239.72 126.014 239.353 127.242 238.719 128.337C238.085 129.431 237.202 130.361 236.143 131.051L77.8687 222.492C75.8615 223.679 74.2375 222.711 74.2375 220.392Z" fill="#3D543D"/>
<path opacity="0.2" d="M77.8686 222.072C76.7322 222.627 75.4841 222.916 74.2192 222.916C72.9544 222.916 71.7062 222.627 70.5699 222.072L57.5598 214.767C56.4988 214.092 55.6142 213.173 54.9795 212.087C54.3448 211.001 53.9783 209.779 53.9104 208.522V98.5923C53.9752 97.2953 54.3744 96.0371 55.0691 94.9402L75.3141 106.472C74.6467 107.546 74.2753 108.778 74.2375 110.042V219.963C74.2375 222.09 75.7337 223.313 77.8686 222.072Z" fill="#304830"/>
<path d="M118.642 132.374L117.063 131.461C116.459 131.115 115.775 130.933 115.079 130.933C114.383 130.933 113.699 131.115 113.095 131.461L103.451 137.031V123.847L121.306 113.538C122.142 113.045 122.834 112.341 123.314 111.497C123.794 110.653 124.045 109.698 124.043 108.727V101.331C124.045 100.36 123.794 99.4047 123.314 98.5607C122.834 97.7166 122.142 97.0129 121.306 96.5193C120.461 96.0304 119.503 95.7729 118.528 95.7729C117.552 95.7729 116.594 96.0304 115.749 96.5193L90.9884 110.827C89.5225 111.673 88.3054 112.89 87.4596 114.357C86.6139 115.824 86.1695 117.488 86.1712 119.181V187.832C86.167 188.805 86.4175 189.762 86.8977 190.608C87.3779 191.454 88.0711 192.159 88.9082 192.653C89.7532 193.14 90.7112 193.397 91.6863 193.397C92.6615 193.397 93.6195 193.14 94.4644 192.653L100.641 189.092C101.478 188.598 102.171 187.893 102.652 187.047C103.132 186.201 103.382 185.244 103.378 184.271V157.337L118.578 148.553C119.18 148.203 119.68 147.701 120.027 147.097C120.375 146.493 120.558 145.808 120.558 145.111V135.835C120.57 135.14 120.4 134.455 120.063 133.847C119.727 133.24 119.237 132.732 118.642 132.374Z" fill="#E0E0E0"/>
<path opacity="0.1" d="M95.0299 192.325L94.5007 192.635C93.6558 193.121 92.6981 193.377 91.7235 193.376C90.7489 193.375 89.7916 193.119 88.9473 192.631C88.103 192.144 87.4013 191.444 86.9125 190.6C86.4237 189.756 86.1648 188.799 86.1619 187.823V119.172C86.1643 117.578 86.5624 116.009 87.3205 114.607L92.8767 117.811C92.1154 119.212 91.717 120.782 91.7181 122.377V190.389C91.7197 190.777 91.8223 191.157 92.0158 191.493C92.2093 191.829 92.487 192.108 92.8215 192.303C93.156 192.499 93.5356 192.604 93.9229 192.607C94.3102 192.611 94.6917 192.514 95.0299 192.325Z" fill="#304830"/>
<path d="M103.451 123.847V143.459L118.623 134.703C118.826 134.583 119.057 134.52 119.293 134.519C119.529 134.518 119.76 134.58 119.964 134.697C120.168 134.815 120.337 134.985 120.455 135.19C120.572 135.395 120.632 135.627 120.63 135.862V145.157C120.63 145.85 120.448 146.532 120.102 147.132C119.756 147.733 119.259 148.233 118.66 148.581L103.451 157.364V184.29C103.455 185.26 103.204 186.214 102.723 187.057C102.243 187.9 101.55 188.602 100.714 189.093L95.0938 192.343C94.7562 192.539 94.373 192.642 93.9827 192.643C93.5924 192.643 93.209 192.54 92.8711 192.345C92.5333 192.15 92.2529 191.868 92.0585 191.53C91.864 191.191 91.7623 190.807 91.7637 190.416V122.377C91.7638 120.684 92.209 119.021 93.0546 117.554C93.9001 116.088 95.1163 114.87 96.5809 114.022L121.105 99.8521C121.41 99.6756 121.757 99.5828 122.109 99.583C122.462 99.5832 122.809 99.6764 123.114 99.8532C123.419 100.03 123.672 100.284 123.848 100.59C124.024 100.896 124.116 101.243 124.116 101.596V108.745C124.118 109.713 123.866 110.664 123.386 111.503C122.906 112.343 122.213 113.042 121.378 113.529L103.451 123.847Z" fill="#FAFAFA"/>
<path d="M156.422 82.3765C156.141 81.4233 155.647 80.5463 154.978 79.8115C154.31 79.0767 153.483 78.5031 152.561 78.134C151.639 77.7649 150.646 77.6098 149.655 77.6804C148.664 77.7511 147.703 78.0455 146.842 78.5417L140.702 82.0934C139.911 82.5496 139.224 83.1661 138.685 83.9036C138.146 84.641 137.767 85.483 137.573 86.3756L119.262 169.809C119.119 170.512 119.199 171.243 119.492 171.898C119.785 172.553 120.276 173.1 120.895 173.461L122.574 174.429C123.094 174.73 123.684 174.888 124.284 174.888C124.885 174.888 125.475 174.73 125.995 174.429L133.394 170.156C134.424 169.525 135.263 168.625 135.821 167.554C136.445 166.472 136.903 165.302 137.18 164.084L140.155 148.873L155.117 140.227L156.668 146.408C156.888 147.214 157.39 147.914 158.082 148.38C158.703 148.745 163.018 151.22 163.638 151.594C164.039 151.766 164.479 151.826 164.911 151.768C165.343 151.71 165.751 151.536 166.093 151.265L175.125 146.043L156.422 82.3765ZM144.26 127.873L147.463 111.375L147.654 110.462L151.048 123.947L144.26 127.873Z" fill="#E0E0E0"/>
<path opacity="0.1" d="M163.565 151.548C162.753 151.064 158.684 148.736 158.091 148.38C157.399 147.914 156.897 147.214 156.677 146.408L155.126 140.227L159.268 137.834L162.233 149.613C162.452 150.387 162.92 151.068 163.565 151.548Z" fill="#304830"/>
<path opacity="0.1" d="M156.604 127.152L151.048 123.938L147.654 110.461C147.654 110.461 147.654 110.461 147.654 110.407C147.946 109.092 148.238 107.595 148.566 105.933C148.959 103.86 149.324 101.651 149.67 99.2859C150.066 101.185 150.458 102.935 150.847 104.536C151.24 106.134 151.605 107.503 151.951 108.654L156.604 127.152Z" fill="#304830"/>
<path opacity="0.1" d="M124.918 172.548C124.869 172.767 124.877 172.996 124.942 173.211C125.008 173.426 125.127 173.62 125.29 173.775C125.453 173.929 125.653 174.039 125.871 174.093C126.089 174.147 126.317 174.143 126.533 174.082V174.155L126.013 174.447C125.493 174.748 124.903 174.906 124.303 174.906C123.702 174.906 123.112 174.748 122.592 174.447L120.895 173.461C120.276 173.1 119.785 172.553 119.492 171.898C119.199 171.243 119.119 170.512 119.262 169.809L137.564 86.4122C137.732 85.6407 138.041 84.907 138.476 84.2483L144.032 87.4622C143.592 88.1148 143.282 88.8465 143.12 89.617L124.918 172.548Z" fill="#304830"/>
<path d="M175.134 146.07L166.093 151.293C165.08 151.877 164.268 151.987 163.648 151.621C162.956 151.154 162.454 150.455 162.233 149.649L159.268 137.853L140.109 148.891L137.144 164.103C136.858 165.322 136.397 166.494 135.775 167.581C135.22 168.653 134.38 169.55 133.349 170.174L126.807 173.964C126.587 174.089 126.336 174.147 126.083 174.133C125.83 174.118 125.587 174.031 125.383 173.882C125.179 173.732 125.022 173.527 124.931 173.29C124.841 173.054 124.821 172.796 124.873 172.548L143.074 89.5896C143.27 88.6987 143.65 87.8585 144.188 87.1227C144.727 86.3869 145.414 85.7717 146.204 85.3166L152.106 81.9018C152.526 81.6598 152.995 81.5161 153.478 81.4817C153.962 81.4473 154.446 81.5231 154.896 81.7032C155.346 81.8834 155.749 82.1634 156.075 82.522C156.4 82.8806 156.641 83.3085 156.778 83.7736L175.134 146.07ZM156.604 127.17L151.951 108.636C151.605 107.494 151.24 106.116 150.847 104.518C150.455 102.92 150.063 101.167 149.67 99.2678C149.333 101.633 148.959 103.833 148.576 105.915C148.192 107.996 147.809 109.786 147.463 111.338L142.846 135.077L156.604 127.17Z" fill="#FAFAFA"/>
<path d="M218.379 114.114C219.973 111.373 221.372 108.523 222.567 105.586C223.801 102.558 224.837 99.4534 225.669 96.2912C226.508 93.0958 227.148 89.8513 227.585 86.5764C228.033 83.2688 228.258 79.9348 228.26 76.5969C228.357 71.6895 227.73 66.7946 226.399 62.0705C225.449 58.5204 223.631 55.2631 221.107 52.5931C220.313 51.8313 219.423 51.1746 218.462 50.6392L212.987 47.4619C211.254 46.4565 209.305 45.8834 207.304 45.791C204.092 45.6084 200.534 46.6462 196.629 48.9045C192.542 51.3061 188.921 54.4235 185.936 58.1079C182.645 62.1058 179.874 66.5052 177.689 71.2009C172.986 81.3282 170.534 92.3552 170.499 103.522C170.405 108.437 171.038 113.338 172.379 118.067C173.325 121.628 175.151 124.893 177.689 127.563C178.48 128.348 179.373 129.023 180.344 129.571C181.256 130.083 184.86 132.183 185.754 132.703C187.509 133.72 189.485 134.293 191.511 134.374C194.722 134.532 198.286 133.482 202.203 131.224C203.87 130.261 205.454 129.162 206.939 127.937L209.201 130.539C209.51 130.856 209.859 131.129 210.241 131.352C210.88 131.726 215.423 134.338 215.77 134.548C216.379 134.922 217.091 135.095 217.805 135.041C219.126 134.883 220.395 134.43 221.518 133.717L231.107 128.184L218.379 114.114ZM209.822 91.1964C209.241 94.4177 208.307 97.5653 207.039 100.582C205.927 103.256 204.437 105.756 202.614 108.005C200.949 110.058 198.928 111.793 196.647 113.128C194.976 114.211 193.052 114.84 191.064 114.954C190.064 113.332 189.351 111.55 188.956 109.685C188.255 106.459 187.93 103.162 187.989 99.8612C187.972 96.2051 188.296 92.5554 188.956 88.9595C189.523 85.74 190.44 82.5925 191.693 79.5734C192.816 76.888 194.315 74.3762 196.146 72.1139C197.821 70.0337 199.862 68.2763 202.167 66.9278C203.809 65.8775 205.695 65.2733 207.641 65.1748C208.652 66.8105 209.374 68.608 209.776 70.4887C210.492 73.7195 210.831 77.0223 210.789 80.3313C210.8 83.9871 210.476 87.6362 209.822 91.2329V91.1964Z" fill="#E0E0E0"/>
<path opacity="0.1" d="M185.526 132.603C184.367 131.936 181.183 130.083 180.344 129.608C179.373 129.06 178.48 128.385 177.689 127.599C175.151 124.93 173.325 121.664 172.379 118.104C171.038 113.375 170.405 108.474 170.499 103.559C170.499 97.9367 171.13 92.332 172.379 86.8504C173.492 81.8583 175.106 76.9915 177.196 72.324L182.752 75.5379C178.364 85.3799 176.083 96.0321 176.056 106.809C175.96 111.721 176.594 116.62 177.935 121.345C178.88 124.909 180.706 128.178 183.245 130.85C183.939 131.516 184.704 132.104 185.526 132.603Z" fill="#304830"/>
<path opacity="0.1" d="M212.595 67.5487C212.058 66.8755 211.388 66.321 210.626 65.9203C209.865 65.5196 209.028 65.2813 208.17 65.2205C208.015 65.2205 207.851 65.2205 207.696 65.2205C208.702 66.8542 209.421 68.6484 209.821 70.5252C210.519 73.7459 210.843 77.0363 210.788 80.3313C210.803 84.0054 210.479 87.673 209.821 91.2877C209.24 94.509 208.307 97.6566 207.039 100.674C205.927 103.347 204.437 105.847 202.614 108.097C200.949 110.15 198.928 111.885 196.647 113.219C194.976 114.302 193.052 114.932 191.063 115.045C191.262 115.366 191.485 115.671 191.729 115.958C192.265 116.636 192.939 117.192 193.707 117.587C194.475 117.983 195.319 118.209 196.182 118.25C198.323 118.239 200.416 117.604 202.203 116.424C204.484 115.09 206.505 113.354 208.17 111.302C209.989 109.049 211.479 106.55 212.595 103.879C213.864 100.859 214.798 97.7079 215.378 94.4834C216.036 90.8687 216.359 87.201 216.345 83.5269C216.397 80.241 216.073 76.96 215.378 73.7482C214.943 71.4938 213.99 69.3714 212.595 67.5487Z" fill="#304830"/>
<path opacity="0.1" d="M208.517 126.604C207.997 127.079 207.477 127.517 206.938 127.974L209.201 130.576C209.509 130.892 209.859 131.166 210.241 131.388C210.861 131.754 215.14 134.21 215.715 134.557C215.361 134.34 215.036 134.079 214.748 133.78L208.517 126.604Z" fill="#304830"/>
<path d="M231.106 128.22L221.518 133.762C220.395 134.468 219.13 134.917 217.814 135.077C217.239 135.105 216.666 135.004 216.137 134.779C215.608 134.555 215.136 134.213 214.757 133.781L208.517 126.604C206.588 128.381 204.471 129.943 202.203 131.261C198.286 133.519 194.722 134.569 191.511 134.411C188.401 134.296 185.449 133.011 183.245 130.813C180.709 128.139 178.883 124.871 177.935 121.308C176.602 116.594 175.968 111.708 176.056 106.809C176.09 95.6422 178.542 84.6151 183.245 74.4878C185.434 69.7816 188.211 65.3729 191.511 61.3675C194.497 57.6851 198.118 54.5681 202.203 52.164C206.108 49.8997 209.666 48.8619 212.878 49.0506C215.975 49.1986 218.904 50.5015 221.089 52.7027C223.617 55.3726 225.437 58.6341 226.381 62.1892C227.72 66.8965 228.353 71.7766 228.26 76.67C228.261 80.0077 228.039 83.3416 227.594 86.6495C227.148 89.9393 226.502 93.1988 225.66 96.4099C224.825 99.5693 223.786 102.671 222.549 105.696C221.357 108.634 219.958 111.484 218.361 114.223L231.106 128.22ZM187.989 99.916C187.93 103.22 188.255 106.52 188.956 109.749C189.386 111.992 190.322 114.106 191.693 115.931C192.232 116.605 192.907 117.158 193.674 117.553C194.442 117.948 195.284 118.176 196.145 118.222C198.287 118.211 200.379 117.576 202.167 116.396C204.448 115.062 206.469 113.327 208.134 111.274C209.955 109.022 211.448 106.523 212.568 103.851C213.822 100.829 214.739 97.6787 215.305 94.456C215.968 90.842 216.291 87.1739 216.272 83.4995C216.329 80.2135 216.005 76.9319 215.305 73.7209C214.877 71.478 213.941 69.3633 212.568 67.5396C212.029 66.8662 211.357 66.3116 210.594 65.9109C209.831 65.5102 208.993 65.272 208.134 65.2114C206.015 65.194 203.939 65.8039 202.167 66.9644C199.86 68.3066 197.819 70.0614 196.145 72.1413C194.318 74.4059 192.819 76.9172 191.693 79.6009C190.444 82.6213 189.527 85.7684 188.956 88.9869C188.297 92.5798 187.973 96.2264 187.989 99.8795V99.916Z" fill="#FAFAFA"/>
<path d="M35.9921 252.832L43.8839 247.719C43.8839 247.719 47.7158 227.349 44.8692 209.371C40.8732 184.007 23.6481 175.288 17.3894 177.789C11.1307 180.291 9.65266 187.833 20.9566 202.441C27.6259 211.079 36.2019 229.33 35.9921 252.832Z" fill="#3D543D"/>
<g opacity="0.3">
<path d="M35.9921 252.832L43.8839 247.719C43.8839 247.719 47.7158 227.349 44.8692 209.371C40.8732 184.007 23.6481 175.288 17.3894 177.789C11.1307 180.291 9.65266 187.833 20.9566 202.441C27.6259 211.079 36.2019 229.33 35.9921 252.832Z" fill="white"/>
</g>
<path d="M38.866 242.779H38.7839C38.636 242.757 38.5028 242.677 38.4125 242.558C38.3223 242.439 38.282 242.289 38.3003 242.14C41.5757 218.401 32.0508 192.453 21.3398 181.98C21.2321 181.875 21.1707 181.731 21.169 181.58C21.1673 181.43 21.2254 181.284 21.3307 181.177C21.436 181.069 21.5797 181.007 21.7302 181.006C21.8808 181.004 22.0259 181.062 22.1336 181.167C33.0361 191.823 42.7435 218.2 39.4225 242.286C39.4049 242.422 39.3388 242.547 39.2365 242.637C39.1342 242.728 39.0026 242.778 38.866 242.779Z" fill="white"/>
<path d="M16.1212 265.678C14.9351 266.354 11.5595 263.752 10.6471 263.122C9.04474 262.029 7.7503 260.542 6.88825 258.803C5.92631 256.82 5.60734 254.585 5.9759 252.412C6.16569 251.266 6.43394 250.134 6.77877 249.025C7.09809 247.929 7.40828 246.833 7.69111 245.738C8.07486 244.677 8.23635 243.549 8.16553 242.423C7.8827 240.177 5.88467 238.607 4.07822 237.246C2.07106 235.749 -0.00909356 233.768 2.99029e-05 231.065C0.143852 228.966 0.981607 226.974 2.38125 225.404C3.67679 223.761 5.20953 222.318 6.37733 220.583C7.2967 219.38 7.77645 217.898 7.73673 216.383C7.61104 215.458 7.30079 214.566 6.82438 213.763C5.91204 212.001 4.6165 210.385 3.95961 208.495C3.30272 206.605 3.39396 204.249 4.87196 202.898C6.07626 201.784 7.8827 201.629 9.5158 201.738C11.0509 201.926 12.5266 202.446 13.8403 203.263C18.1284 205.646 20.5826 210.732 25.1352 212.567C26.9295 213.133 28.7579 213.584 30.6093 213.918C32.434 214.402 34.3043 215.343 35.171 217.032C36.8406 220.373 33.7386 224.491 34.9155 228.034C35.9556 231.175 39.0028 232.371 40.7089 235.201C41.4063 236.45 41.6875 237.89 41.5118 239.31C41.3629 241.709 40.7753 244.061 39.7783 246.249C38.6527 248.519 37.3882 250.718 35.9921 252.832L16.1212 265.678Z" fill="#3D543D"/>
<g opacity="0.65">
<path d="M16.1212 265.678C14.9351 266.354 11.5595 263.752 10.6471 263.122C9.04474 262.029 7.7503 260.542 6.88825 258.803C5.92631 256.82 5.60734 254.585 5.9759 252.412C6.16569 251.266 6.43394 250.134 6.77877 249.025C7.09809 247.929 7.40828 246.833 7.69111 245.738C8.07486 244.677 8.23635 243.549 8.16553 242.423C7.8827 240.177 5.88467 238.607 4.07822 237.246C2.07106 235.749 -0.00909356 233.768 2.99029e-05 231.065C0.143852 228.966 0.981607 226.974 2.38125 225.404C3.67679 223.761 5.20953 222.318 6.37733 220.583C7.2967 219.38 7.77645 217.898 7.73673 216.383C7.61104 215.458 7.30079 214.566 6.82438 213.763C5.91204 212.001 4.6165 210.385 3.95961 208.495C3.30272 206.605 3.39396 204.249 4.87196 202.898C6.07626 201.784 7.8827 201.629 9.5158 201.738C11.0509 201.926 12.5266 202.446 13.8403 203.263C18.1284 205.646 20.5826 210.732 25.1352 212.567C26.9295 213.133 28.7579 213.584 30.6093 213.918C32.434 214.402 34.3043 215.343 35.171 217.032C36.8406 220.373 33.7386 224.491 34.9155 228.034C35.9556 231.175 39.0028 232.371 40.7089 235.201C41.4063 236.45 41.6875 237.89 41.5118 239.31C41.3629 241.709 40.7753 244.061 39.7783 246.249C38.6527 248.519 37.3882 250.718 35.9921 252.832L16.1212 265.678Z" fill="white"/>
</g>
<path d="M27.5802 258.958C27.5099 258.956 27.4407 258.94 27.3768 258.91C27.3129 258.881 27.2555 258.839 27.2079 258.787C27.1603 258.735 27.1236 258.675 27.0998 258.608C27.076 258.542 27.0656 258.472 27.0693 258.401C27.9816 237.182 17.9458 213.745 10.647 206.943C10.5582 206.842 10.5099 206.713 10.5115 206.579C10.5131 206.445 10.5645 206.316 10.6556 206.218C10.7468 206.12 10.8712 206.06 11.0045 206.048C11.1379 206.037 11.2706 206.076 11.3769 206.157C18.7852 213.106 28.9852 236.927 28.0911 258.447C28.0845 258.58 28.0285 258.707 27.9341 258.801C27.8397 258.896 27.7135 258.952 27.5802 258.958Z" fill="white"/>
<path d="M24.1316 233.019H23.9765C18.9637 231.63 13.8155 230.788 8.62174 230.508C8.55144 230.506 8.4823 230.489 8.41838 230.46C8.35446 230.431 8.29703 230.389 8.24946 230.337C8.20189 230.285 8.16513 230.224 8.14132 230.158C8.11752 230.092 8.10715 230.021 8.11083 229.951C8.1119 229.88 8.12737 229.811 8.15631 229.746C8.18524 229.681 8.22703 229.623 8.27912 229.576C8.33121 229.528 8.39251 229.491 8.45926 229.468C8.52602 229.444 8.59682 229.435 8.66736 229.44C13.9648 229.716 19.2169 230.564 24.3324 231.969C24.4662 232.015 24.5771 232.111 24.6417 232.237C24.7063 232.363 24.7197 232.509 24.679 232.645C24.6426 232.759 24.569 232.858 24.4698 232.926C24.3706 232.994 24.2515 233.027 24.1316 233.019Z" fill="white"/>
<path d="M217.257 420C333.647 420 428 365.485 428 298.237C428 230.989 333.647 176.474 217.257 176.474C100.867 176.474 6.51416 230.989 6.51416 298.237C6.51416 365.485 100.867 420 217.257 420Z" fill="#FAFAFA"/>
<path d="M105.258 246.331C149.899 220.547 222.266 220.547 266.898 246.331C304.733 268.189 310.481 301.561 284.178 326.934L382.392 382.958C388.377 386.419 388.377 392.025 382.392 395.485L373.56 400.589C367.575 404.049 358.051 403.775 352.248 399.986L266.487 339.963C221.782 365.528 149.78 365.428 105.294 339.726C60.6255 313.932 60.6255 272.124 105.258 246.331Z" fill="#E6E6E6"/>
<path d="M123.349 19.6145L115.613 24.0884C115.652 23.7489 115.673 23.4075 115.676 23.0658V20.8197C115.676 16.8206 112.875 15.2045 109.418 17.1675C107.928 18.0775 106.654 19.3021 105.686 20.7558C105.111 15.7341 101.179 13.8623 96.3894 16.6197C91.2164 19.6145 87.0287 26.8823 87.0287 32.8627V36.2135C86.9928 37.5567 87.2643 38.8902 87.8224 40.1122L81.436 43.8283C80.4183 44.4889 79.5722 45.3825 78.9678 46.4351C78.3634 47.4877 78.0179 48.6691 77.96 49.8817C77.96 52.1004 79.5109 52.9952 81.436 51.8904L123.404 27.6401C124.417 26.983 125.26 26.0952 125.864 25.0494C126.468 24.0036 126.816 22.8295 126.88 21.6232C126.825 19.4045 125.274 18.5097 123.349 19.6145Z" fill="#EBEBEB"/>
<path d="M21.3031 39.7561L25.6641 36.387V26.7635C25.6641 19.1305 31.7495 10.2741 38.3458 6.46669C44.9512 2.65019 50.3066 5.74539 50.3066 13.3693V14.7662C51.6989 12.5091 53.5983 10.6083 55.8537 9.21494C60.607 6.47583 64.4571 8.69451 64.4571 14.1819V14.821L70.5425 11.3058C73.6718 9.47972 76.2081 10.9588 76.2081 14.5745C76.1019 16.5425 75.5336 18.4576 74.5491 20.1646C73.5647 21.8716 72.1921 23.3222 70.5425 24.3988L21.3031 52.8491C18.1738 54.6751 15.6375 53.1869 15.6375 49.5713C15.7436 47.6045 16.3121 45.6906 17.2965 43.9851C18.281 42.2796 19.6537 40.8307 21.3031 39.7561Z" fill="#EBEBEB"/>
<path d="M86.0161 263.113V290.896C86.0161 305.98 95.9789 321.027 115.895 332.577C155.729 355.594 220.323 355.594 260.156 332.577C280.072 321.063 290.035 305.98 290.035 290.896V263.113C290.035 248.029 280.072 232.982 260.156 221.442C220.323 198.424 155.729 198.424 115.895 221.442C95.9789 232.946 86.0161 248.029 86.0161 263.113ZM280.163 263.113C280.163 275.183 271.305 286.943 255.22 296.238C237.429 306.518 213.571 312.179 188.026 312.179C162.48 312.179 138.622 306.518 120.831 296.238C104.747 286.943 95.8877 275.183 95.8877 263.113C95.8877 251.042 104.747 239.282 120.831 229.988C138.622 219.707 162.48 214.046 188.026 214.046C213.571 214.046 237.438 219.707 255.22 229.988C271.314 239.282 280.163 251.07 280.163 263.113Z" fill="#3D543D"/>
<path opacity="0.2" d="M86.0161 263.113V290.896C86.0161 305.98 95.9789 321.027 115.895 332.577C155.729 355.594 220.323 355.594 260.156 332.577C280.072 321.063 290.035 305.98 290.035 290.896V263.113C290.035 248.029 280.072 232.982 260.156 221.442C220.323 198.424 155.729 198.424 115.895 221.442C95.9789 232.946 86.0161 248.029 86.0161 263.113ZM280.163 263.113C280.163 275.183 271.305 286.943 255.22 296.238C237.429 306.518 213.571 312.179 188.026 312.179C162.48 312.179 138.622 306.518 120.831 296.238C104.747 286.943 95.8877 275.183 95.8877 263.113C95.8877 251.042 104.747 239.282 120.831 229.988C138.622 219.707 162.48 214.046 188.026 214.046C213.571 214.046 237.438 219.707 255.22 229.988C271.314 239.282 280.163 251.07 280.163 263.113Z" fill="white"/>
<path opacity="0.6" d="M289.935 293.49C288.347 303.049 284.141 310.244 267.199 323.474C243.25 342.191 182.606 349.833 147.408 338.21C114.208 327.254 103.615 305.806 103.615 291.097L103.707 282.451C98.5791 276.343 95.8786 269.778 95.8786 263.113C95.8786 256.283 98.716 249.554 104.09 243.318L104.208 231.138H102.32C91.4537 240.844 86.0161 251.974 86.0161 263.095V290.878C86.0161 305.962 95.9789 321.009 115.895 332.559C155.729 355.576 220.323 355.576 260.156 332.559C278.932 321.73 288.858 307.678 289.935 293.49Z" fill="#3D543D"/>
<path d="M260.165 221.442C220.323 198.424 155.738 198.424 115.905 221.442C76.0715 244.459 76.0624 281.775 115.905 304.793C155.747 327.811 220.323 327.811 260.165 304.793C300.007 281.775 299.998 244.459 260.165 221.442ZM255.229 296.238C237.438 306.518 213.571 312.179 188.035 312.179C162.498 312.179 138.631 306.518 120.831 296.238C104.747 286.943 95.8877 275.183 95.8877 263.113C95.8877 251.042 104.747 239.282 120.831 229.988C138.622 219.707 162.489 214.046 188.035 214.046C213.58 214.046 237.438 219.707 255.229 229.988C271.314 239.282 280.173 251.051 280.173 263.113C280.173 275.174 271.314 286.943 255.229 296.238Z" fill="#3D543D"/>
<path opacity="0.5" d="M260.165 221.442C220.323 198.424 155.738 198.424 115.905 221.442C76.0715 244.459 76.0624 281.775 115.905 304.793C155.747 327.811 220.323 327.811 260.165 304.793C300.007 281.775 299.998 244.459 260.165 221.442ZM255.229 296.238C237.438 306.518 213.571 312.179 188.035 312.179C162.498 312.179 138.631 306.518 120.831 296.238C104.747 286.943 95.8877 275.183 95.8877 263.113C95.8877 251.042 104.747 239.282 120.831 229.988C138.622 219.707 162.489 214.046 188.035 214.046C213.58 214.046 237.438 219.707 255.229 229.988C271.314 239.282 280.173 251.051 280.173 263.113C280.173 275.174 271.314 286.943 255.229 296.238Z" fill="white"/>
<path d="M280.182 263.112C280.123 268.019 278.746 272.819 276.195 277.009C272.153 270.006 265.028 263.432 255.211 257.78C237.438 247.49 213.562 241.829 188.016 241.829C162.471 241.829 138.613 247.49 120.831 257.78C111.024 263.432 103.907 270.006 99.8473 277.009C97.3165 272.811 95.9497 268.014 95.8877 263.112C95.8877 251.051 104.747 239.282 120.84 229.978C138.622 219.716 162.489 214.046 188.026 214.046C213.562 214.046 237.447 219.716 255.22 229.978C271.323 239.282 280.182 251.069 280.182 263.112Z" fill="#3D543D"/>
<path opacity="0.3" d="M280.182 263.112C280.123 268.019 278.746 272.819 276.195 277.009C272.153 270.006 265.028 263.432 255.211 257.78C237.438 247.49 213.562 241.829 188.016 241.829C162.471 241.829 138.613 247.49 120.831 257.78C111.024 263.432 103.907 270.006 99.8473 277.009C97.3165 272.811 95.9497 268.014 95.8877 263.112C95.8877 251.051 104.747 239.282 120.84 229.978C138.622 219.716 162.489 214.046 188.026 214.046C213.562 214.046 237.447 219.716 255.22 229.978C271.323 239.282 280.182 251.069 280.182 263.112Z" fill="white"/>
<path opacity="0.6" d="M120.84 229.978C104.747 239.282 95.8877 251.051 95.8877 263.112C95.9524 268.015 97.3224 272.812 99.8564 277.009C103.925 270.006 111.042 263.432 120.84 257.78C124.984 255.409 129.289 253.331 133.723 251.563C129.836 253.069 117.903 256.913 122.255 245.527C127.428 232.005 152.672 217.36 171.22 214.931C152.143 216.821 134.653 222.007 120.84 229.978Z" fill="#3D543D"/>
<path opacity="0.4" d="M255.229 242.569C237.438 232.289 213.571 226.628 188.035 226.628C162.498 226.628 138.622 232.289 120.831 242.569C107.566 250.239 99.2268 259.588 96.7087 269.404C99.2268 279.219 107.566 288.577 120.831 296.238C138.631 306.519 162.489 312.179 188.035 312.179C213.58 312.179 237.438 306.519 255.229 296.238C268.504 288.568 276.842 279.219 279.351 269.404C276.852 259.588 268.504 250.239 255.229 242.569Z" fill="white"/>
<path d="M114.016 275.776C119.718 280.25 126.187 283.081 132.783 285.327C139.397 287.519 146.172 289.192 153.046 290.33C166.782 292.562 180.712 293.358 194.613 292.704C201.556 292.394 208.508 291.745 215.414 290.814C222.299 289.889 229.12 288.544 235.842 286.787C242.53 285.113 249 282.662 255.119 279.483C256.63 278.678 258.092 277.784 259.499 276.808C260.911 275.843 262.25 274.775 263.504 273.612C264.769 272.444 265.898 271.136 266.87 269.714C267.876 268.253 268.643 266.641 269.142 264.938C269.172 266.805 268.863 268.661 268.23 270.417C267.56 272.182 266.684 273.861 265.621 275.42C264.569 276.991 263.372 278.458 262.044 279.803C260.73 281.153 259.331 282.419 257.856 283.592C251.911 288.127 245.321 291.746 238.305 294.329C231.387 296.938 224.252 298.927 216.983 300.273C209.753 301.643 202.437 302.512 195.087 302.875C180.335 303.647 165.554 302.072 151.294 298.21C144.161 296.254 137.272 293.497 130.757 289.992C127.513 288.212 124.43 286.153 121.543 283.838C120.822 283.263 120.147 282.633 119.453 282.012C118.76 281.391 118.103 280.761 117.474 280.095C116.203 278.754 115.046 277.31 114.016 275.776Z" fill="white"/>
<path d="M257.127 322.478C257.249 319.996 257.956 317.577 259.19 315.419C260.423 313.261 262.148 311.425 264.225 310.061C266.177 308.92 267.956 308.801 269.252 309.532L291.987 322.542C293.274 323.282 294.077 324.88 294.086 327.108C293.961 329.59 293.253 332.008 292.02 334.165C290.787 336.323 289.063 338.159 286.988 339.525C285.017 340.675 283.229 340.794 281.933 340.045L259.207 327.044C257.948 326.368 257.136 324.77 257.127 322.478Z" fill="#37474F"/>
<path d="M259.252 327.107C257.948 326.368 257.136 324.77 257.127 322.478C257.159 320.63 257.572 318.809 258.34 317.128L291.011 335.863C289.948 337.359 288.595 338.626 287.033 339.589C285.063 340.739 283.275 340.858 281.979 340.109L259.252 327.107Z" fill="#263238"/>
<path d="M369.4 359.548L297.051 322.652L296.96 322.597C295.281 321.684 293 321.848 290.491 323.309C285.364 326.304 281.231 333.535 281.258 339.47C281.258 342.447 282.326 344.528 283.995 345.496L351.992 389.322C353.949 390.561 356.135 391.394 358.419 391.769C360.704 392.145 363.041 392.056 365.291 391.508C367.541 390.96 369.657 389.965 371.514 388.581C373.371 387.197 374.931 385.452 376.1 383.452C377.268 381.452 378.023 379.236 378.318 376.938C378.612 374.64 378.442 372.306 377.816 370.075C377.189 367.844 376.121 365.762 374.673 363.954C373.226 362.145 371.429 360.647 369.391 359.548H369.4Z" fill="#393E46"/>
<path d="M284.004 345.515L352.002 389.34C354.53 390.929 357.426 391.832 360.408 391.962C363.39 392.093 366.355 391.445 369.012 390.084C371.668 388.722 373.926 386.693 375.563 384.196C377.2 381.698 378.16 378.817 378.35 375.837C377.046 381.506 367.685 386.327 356.08 379.836C344.475 373.344 301.485 346.144 281.952 334.887C281.493 336.366 281.253 337.904 281.24 339.452C281.249 342.465 282.326 344.547 284.004 345.515Z" fill="#37474F"/>
<path d="M284.004 345.514C282.307 344.547 281.267 342.465 281.267 339.488C281.267 333.554 285.373 326.322 290.5 323.328C293.009 321.867 295.29 321.711 296.969 322.615L303.355 325.866C301.631 324.953 299.304 325.099 296.722 326.596C291.467 329.664 287.225 337.087 287.252 343.177C287.252 346.227 288.302 348.409 290.035 349.395" fill="#3D543D"/>
<path opacity="0.2" d="M290.026 349.395C288.293 348.409 287.289 346.227 287.243 343.177C287.253 341.564 287.502 339.961 287.982 338.42C285.802 337.124 283.767 335.937 281.952 334.887C281.722 335.65 281.542 336.428 281.413 337.215C281.359 337.598 281.313 337.982 281.277 338.365C281.277 338.749 281.231 339.123 281.277 339.488C281.277 342.465 282.344 344.547 284.014 345.515L290.026 349.395Z" fill="#304830"/>
<path d="M110.996 387.806L56.2553 360.406L34.4502 370.066L110.996 387.806Z" fill="#3D543D"/>
<g opacity="0.15">
<path d="M110.996 387.806L56.2553 360.406L34.4502 370.066L110.996 387.806Z" fill="white"/>
</g>
<path d="M110.996 387.806L62.7786 355.548L71.4094 343.131L110.996 387.806Z" fill="#3D543D"/>
<g opacity="0.15">
<path d="M110.996 387.806L62.7786 355.548L71.4094 343.131L110.996 387.806Z" fill="white"/>
</g>
<path d="M62.7786 355.549L63.6818 364.122L110.996 387.806L62.7786 355.549Z" fill="#3D543D"/>
<g opacity="0.2">
<path d="M62.7786 355.549L63.6818 364.122L110.996 387.806L62.7786 355.549Z" fill="#304830"/>
</g>
<path d="M54.9687 353.905C55.1013 353.902 55.228 353.85 55.3245 353.759C55.4362 353.649 55.5035 353.502 55.5136 353.345C55.5237 353.188 55.4759 353.034 55.3793 352.91L54.3301 351.504C54.2875 351.445 54.2328 351.395 54.1696 351.359C54.1064 351.322 54.0361 351.3 53.9635 351.293C53.8909 351.286 53.8176 351.295 53.7487 351.319C53.6797 351.342 53.6167 351.381 53.5637 351.431C53.4524 351.541 53.3847 351.687 53.3729 351.843C53.3612 352 53.4063 352.155 53.4998 352.28C53.8465 352.746 54.2023 353.193 54.5582 353.659C54.6029 353.729 54.6633 353.787 54.7345 353.83C54.8058 353.873 54.8859 353.899 54.9687 353.905Z" fill="#393E46"/>
<path d="M50.1607 347.678C49.5099 346.729 48.8804 345.77 48.2721 344.802C48.1899 344.669 48.1584 344.511 48.1835 344.356C48.2087 344.202 48.2888 344.062 48.409 343.962C48.4658 343.917 48.5316 343.885 48.602 343.868C48.6723 343.851 48.7456 343.849 48.8166 343.863C48.8877 343.877 48.955 343.906 49.0137 343.948C49.0725 343.99 49.1214 344.045 49.1571 344.108C49.7684 345.067 50.3888 346.016 50.9818 346.957C51.0712 347.085 51.1094 347.243 51.0892 347.398C51.069 347.553 50.9916 347.695 50.8723 347.797C50.7838 347.874 50.6703 347.916 50.553 347.915C50.4742 347.907 50.3981 347.882 50.3303 347.841C50.2625 347.8 50.2046 347.744 50.1607 347.678ZM45.3344 339.835C44.7778 338.822 44.2304 337.79 43.7104 336.758C43.6389 336.619 43.6208 336.459 43.6595 336.307C43.6982 336.156 43.7909 336.024 43.9202 335.936C43.983 335.898 44.0534 335.873 44.1267 335.864C44.1999 335.855 44.2741 335.862 44.3443 335.885C44.4145 335.907 44.479 335.945 44.5334 335.995C44.5878 336.045 44.6307 336.106 44.6592 336.174C45.1702 337.187 45.7084 338.201 46.2559 339.205C46.3336 339.341 46.3588 339.5 46.3269 339.653C46.295 339.807 46.208 339.943 46.0825 340.036C45.9973 340.088 45.8996 340.117 45.7997 340.118C45.704 340.117 45.6104 340.09 45.5286 340.04C45.4468 339.99 45.3798 339.919 45.3344 339.835ZM41.2653 331.472C40.8091 330.385 40.353 329.289 39.9698 328.203C39.9138 328.059 39.9126 327.9 39.9664 327.755C40.0203 327.61 40.1253 327.49 40.2617 327.418C40.3297 327.389 40.4029 327.375 40.4767 327.376C40.5505 327.377 40.6233 327.393 40.6903 327.424C40.7573 327.455 40.8171 327.5 40.8659 327.555C40.9146 327.611 40.9512 327.676 40.9734 327.746C41.3657 328.815 41.7945 329.892 42.2507 330.96C42.312 331.104 42.3189 331.264 42.2702 331.412C42.2215 331.56 42.1204 331.685 41.9861 331.764C41.9152 331.799 41.8372 331.818 41.758 331.819C41.651 331.815 41.5472 331.781 41.4597 331.719C41.3721 331.657 41.3045 331.571 41.2653 331.472ZM38.1086 322.633C37.7802 321.492 37.47 320.333 37.1962 319.21C37.1527 319.061 37.1682 318.901 37.2396 318.763C37.311 318.625 37.4327 318.52 37.5794 318.47C37.6508 318.451 37.7253 318.447 37.7983 318.458C37.8713 318.47 37.9412 318.496 38.0037 318.535C38.0661 318.574 38.1198 318.626 38.1614 318.687C38.203 318.748 38.2316 318.817 38.2454 318.89C38.51 320.004 38.8111 321.136 39.1578 322.259C39.2042 322.406 39.1945 322.565 39.1304 322.705C39.0663 322.845 38.9525 322.956 38.8111 323.017H38.6469C38.528 323.019 38.4116 322.983 38.3147 322.914C38.2179 322.845 38.1456 322.747 38.1086 322.633ZM35.992 313.403C35.8095 312.243 35.6453 311.056 35.5084 309.878C35.4817 309.727 35.5155 309.571 35.6026 309.445C35.6897 309.319 35.823 309.231 35.9737 309.203C36.1233 309.192 36.2709 309.241 36.3851 309.338C36.4993 309.436 36.571 309.574 36.585 309.723C36.7127 310.883 36.8769 312.051 37.0594 313.193C37.0901 313.341 37.0628 313.496 36.983 313.625C36.9033 313.754 36.7772 313.848 36.6306 313.887H36.5302C36.3987 313.88 36.2734 313.828 36.1755 313.74C36.0775 313.652 36.0127 313.533 35.992 313.403ZM35.0796 303.944C35.0796 303.03 35.0249 302.117 35.0249 301.14V300.374C35.0212 300.299 35.0322 300.225 35.0573 300.155C35.0823 300.085 35.121 300.02 35.171 299.965C35.221 299.91 35.2814 299.865 35.3487 299.833C35.4159 299.802 35.4888 299.784 35.5631 299.78C35.7141 299.792 35.8543 299.863 35.9534 299.977C36.0524 300.092 36.1024 300.241 36.0923 300.392V301.14C36.0923 302.054 36.0923 302.967 36.0923 303.88C36.1051 304.032 36.0578 304.183 35.9606 304.301C35.8634 304.418 35.724 304.493 35.5723 304.51C35.4352 304.492 35.3095 304.424 35.2187 304.32C35.1279 304.216 35.0785 304.082 35.0796 303.944ZM35.8004 295.096C35.651 295.069 35.5177 294.986 35.4277 294.864C35.3378 294.742 35.2981 294.589 35.3168 294.439C35.4172 293.261 35.5449 292.065 35.6909 290.887C35.6964 290.812 35.7172 290.74 35.7518 290.673C35.7865 290.607 35.8344 290.549 35.8925 290.502C35.9507 290.455 36.0178 290.42 36.0898 290.4C36.1618 290.38 36.2372 290.375 36.3113 290.385C36.4603 290.416 36.5914 290.504 36.6766 290.63C36.7618 290.756 36.7944 290.911 36.7674 291.061C36.6215 292.22 36.4937 293.398 36.3934 294.548C36.3869 294.69 36.3284 294.824 36.229 294.925C36.1297 295.027 35.9965 295.087 35.8551 295.096H35.8004ZM37.0776 285.765C36.9316 285.718 36.8087 285.618 36.7341 285.484C36.6595 285.35 36.6388 285.192 36.6762 285.044C36.9134 283.884 37.1871 282.725 37.4882 281.583C37.5018 281.511 37.5304 281.442 37.5722 281.381C37.6139 281.321 37.6678 281.269 37.7305 281.231C37.7932 281.192 37.8633 281.167 37.9362 281.157C38.0092 281.147 38.0834 281.152 38.1542 281.172C38.2986 281.228 38.4171 281.336 38.4863 281.474C38.5555 281.613 38.5705 281.772 38.5283 281.921C38.2363 283.035 37.9626 284.185 37.7254 285.318C37.7064 285.444 37.6441 285.559 37.5491 285.644C37.4542 285.729 37.3327 285.778 37.2054 285.783L37.0776 285.765ZM39.541 276.735C39.4022 276.668 39.294 276.55 39.2382 276.406C39.1823 276.262 39.183 276.102 39.2399 275.959C39.6322 274.863 40.0701 273.758 40.5263 272.681C40.5521 272.613 40.5917 272.55 40.6428 272.498C40.6938 272.446 40.7551 272.405 40.8228 272.377C40.8905 272.35 40.9631 272.337 41.0362 272.339C41.1092 272.341 41.181 272.358 41.2471 272.389C41.38 272.469 41.4798 272.594 41.5284 272.742C41.5769 272.889 41.571 273.049 41.5116 273.192C41.0555 274.252 40.5993 275.329 40.2435 276.406C40.2093 276.513 40.1425 276.607 40.0525 276.674C39.9626 276.741 39.8539 276.778 39.7417 276.781C39.672 276.783 39.6028 276.767 39.541 276.735ZM43.2907 268.253C43.1622 268.162 43.0716 268.027 43.0362 267.874C43.0009 267.721 43.0233 267.56 43.0991 267.422C43.6557 266.409 44.2396 265.395 44.8326 264.418C44.8676 264.353 44.9163 264.297 44.9751 264.253C45.0339 264.209 45.1016 264.178 45.1735 264.162C45.2454 264.146 45.3198 264.146 45.3917 264.162C45.4636 264.178 45.5311 264.209 45.5898 264.254C45.7099 264.354 45.7906 264.493 45.8174 264.647C45.8441 264.801 45.8152 264.959 45.7358 265.094C45.1428 266.052 44.568 267.048 44.0297 268.043C43.9863 268.129 43.92 268.203 43.8379 268.254C43.7559 268.306 43.6613 268.334 43.5644 268.335C43.4672 268.335 43.3721 268.306 43.2907 268.253ZM48.1353 260.501C48.0247 260.393 47.9572 260.248 47.9455 260.093C47.9337 259.939 47.9785 259.785 48.0714 259.661C48.7557 258.748 49.4764 257.835 50.1972 256.977C50.2443 256.921 50.303 256.876 50.3692 256.846C50.4353 256.815 50.5074 256.799 50.5804 256.799C50.6533 256.799 50.7254 256.815 50.7916 256.846C50.8578 256.876 50.9165 256.921 50.9636 256.977C51.0675 257.094 51.1248 257.245 51.1248 257.401C51.1248 257.558 51.0675 257.709 50.9636 257.826C50.2519 258.675 49.5494 259.552 48.8743 260.455C48.8267 260.523 48.7638 260.578 48.6908 260.616C48.6178 260.654 48.5369 260.674 48.4546 260.675C48.385 260.673 48.3165 260.657 48.2536 260.627C48.1906 260.597 48.1348 260.554 48.0897 260.501H48.1353ZM54.0017 253.672C53.8978 253.555 53.8404 253.404 53.8404 253.247C53.8404 253.091 53.8978 252.939 54.0017 252.823C54.8045 252.028 55.6348 251.252 56.465 250.522C56.5198 250.473 56.5844 250.436 56.6545 250.415C56.7245 250.393 56.7984 250.387 56.8711 250.396C56.9438 250.406 57.0137 250.431 57.0758 250.47C57.138 250.509 57.191 250.561 57.2314 250.622C57.3197 250.751 57.359 250.908 57.3423 251.063C57.3256 251.219 57.2539 251.364 57.1401 251.471C56.319 252.183 55.507 252.941 54.7133 253.717C54.6197 253.814 54.4919 253.87 54.3575 253.872C54.2798 253.871 54.2035 253.852 54.134 253.818C54.0645 253.783 54.0037 253.733 53.9561 253.672H54.0017ZM60.7165 247.892C60.6417 247.756 60.6171 247.599 60.6471 247.447C60.6772 247.295 60.7599 247.158 60.8808 247.061C61.7931 246.404 62.7055 245.792 63.6178 245.235C63.6803 245.198 63.7499 245.175 63.8221 245.167C63.8943 245.159 63.9673 245.166 64.0364 245.189C64.1055 245.211 64.169 245.248 64.2226 245.297C64.2763 245.346 64.3189 245.406 64.3477 245.473C64.4186 245.61 64.4364 245.769 64.3977 245.919C64.359 246.069 64.2665 246.199 64.1378 246.285C63.2255 246.833 62.3132 247.436 61.4008 248.111C61.3154 248.171 61.2133 248.203 61.1089 248.203C61.0156 248.192 60.9266 248.158 60.85 248.104C60.7735 248.049 60.7119 247.977 60.6709 247.892H60.7165Z" fill="#393E46"/>
<path d="M68.7453 243.948H68.9096C69.3915 243.765 69.8893 243.627 70.3967 243.537C70.5464 243.504 70.6776 243.414 70.7626 243.286C70.8477 243.159 70.88 243.003 70.8528 242.852C70.8471 242.778 70.8267 242.706 70.7927 242.64C70.7587 242.574 70.7118 242.515 70.6549 242.468C70.5979 242.42 70.532 242.384 70.461 242.362C70.39 242.341 70.3154 242.333 70.2416 242.341C69.6764 242.447 69.121 242.599 68.5811 242.797C68.4366 242.855 68.3194 242.965 68.2533 243.106C68.1872 243.247 68.1772 243.407 68.2253 243.555C68.2598 243.667 68.3286 243.765 68.4219 243.836C68.5153 243.906 68.6284 243.945 68.7453 243.948Z" fill="#393E46"/>
<path d="M324.932 33.9034L268.823 16.6926L312.05 46.412L324.932 33.9034Z" fill="#3D543D"/>
<path opacity="0.15" d="M324.932 33.9034L268.823 16.6926L312.05 46.412L324.932 33.9034Z" fill="white"/>
<path d="M268.823 16.6925L329.211 26.4163L342.093 13.9077L268.823 16.6925Z" fill="#3D543D"/>
<path opacity="0.15" d="M268.823 16.6925L329.211 26.4163L342.093 13.9077L268.823 16.6925Z" fill="white"/>
<path d="M329.211 26.4165L329.266 41.3538L324.932 33.9034L268.823 16.6926L329.211 26.4165Z" fill="#3D543D"/>
<path opacity="0.2" d="M329.211 26.4165L329.266 41.3538L324.932 33.9034L268.823 16.6926L329.211 26.4165Z" fill="#304830"/>
<path d="M329.266 41.3537L320.635 38.0759L324.932 33.9033L329.266 41.3537Z" fill="#3D543D"/>
<path opacity="0.2" d="M324.932 33.9033L320.635 38.0759L322.013 38.5963L324.932 33.9033Z" fill="#304830"/>
<path d="M340.588 31.2739C340.536 31.3129 340.492 31.3621 340.459 31.4186C340.426 31.4751 340.405 31.5377 340.397 31.6026C340.378 31.7584 340.415 31.9159 340.502 32.0465C340.589 32.1771 340.72 32.2723 340.871 32.3148L342.532 32.7621C342.601 32.7841 342.675 32.7905 342.747 32.7811C342.82 32.7716 342.889 32.7464 342.951 32.7073C343.012 32.6682 343.065 32.616 343.104 32.5545C343.144 32.4931 343.169 32.4237 343.179 32.3513C343.201 32.1976 343.167 32.0412 343.083 31.9105C343 31.7798 342.872 31.6835 342.723 31.6391L341.044 31.1917C340.967 31.1692 340.886 31.1649 340.807 31.1791C340.728 31.1934 340.653 31.2258 340.588 31.2739Z" fill="#393E46"/>
<path d="M348.188 33.3098C349.274 33.675 350.359 34.0585 351.427 34.4511C351.573 34.5065 351.695 34.6124 351.77 34.7496C351.845 34.8869 351.869 35.0465 351.837 35.1998C351.818 35.2704 351.784 35.3362 351.738 35.3926C351.691 35.449 351.633 35.4948 351.567 35.5268C351.502 35.5588 351.43 35.5764 351.357 35.5782C351.284 35.5801 351.211 35.5662 351.144 35.5376C350.086 35.145 349.009 34.7707 347.932 34.4054C347.786 34.3553 347.662 34.2536 347.585 34.1192C347.508 33.9849 347.482 33.827 347.513 33.675C347.534 33.5579 347.599 33.4533 347.695 33.3828C347.765 33.3304 347.846 33.2962 347.932 33.2835C348.018 33.2707 348.106 33.2797 348.188 33.3098ZM356.773 36.615C357.84 37.0898 358.89 37.528 359.93 38.085C360.071 38.1509 360.182 38.2667 360.243 38.41C360.303 38.5533 360.309 38.714 360.258 38.8611C360.231 38.9292 360.19 38.9908 360.137 39.0418C360.084 39.0928 360.021 39.1321 359.953 39.1571C359.884 39.1821 359.81 39.1923 359.737 39.1869C359.664 39.1815 359.593 39.1607 359.528 39.1259C358.506 38.6237 357.466 38.1398 356.417 37.6832C356.276 37.6192 356.162 37.5065 356.097 37.3658C356.032 37.2251 356.019 37.0656 356.061 36.9163C356.091 36.8177 356.152 36.7314 356.235 36.6698C356.311 36.613 356.402 36.578 356.496 36.5683C356.591 36.5587 356.687 36.5748 356.773 36.615ZM365.075 40.8058C366.097 41.3902 367.101 42.0019 368.086 42.6319C368.217 42.7134 368.315 42.8397 368.36 42.9874C368.405 43.1352 368.395 43.2943 368.332 43.4354C368.296 43.5 368.247 43.5563 368.187 43.6006C368.128 43.6449 368.06 43.6763 367.988 43.6926C367.916 43.709 367.841 43.71 367.768 43.6955C367.695 43.6811 367.627 43.6516 367.566 43.6089C366.599 42.9971 365.605 42.4037 364.601 41.7828C364.466 41.7073 364.363 41.5845 364.312 41.438C364.262 41.2914 364.267 41.1314 364.327 40.9885C364.357 40.9124 364.408 40.8461 364.473 40.7967C364.563 40.7391 364.669 40.7093 364.776 40.711C364.883 40.7126 364.987 40.7456 365.075 40.8058ZM372.94 45.928C373.898 46.631 374.837 47.3615 375.741 48.0919C375.863 48.1862 375.945 48.3234 375.971 48.4758C375.996 48.6283 375.963 48.7847 375.878 48.9136C375.833 48.9727 375.776 49.0217 375.711 49.0574C375.645 49.093 375.573 49.1146 375.499 49.1206C375.425 49.1266 375.351 49.117 375.281 49.0924C375.211 49.0677 375.147 49.0286 375.093 48.9775C374.181 48.2562 373.268 47.5441 372.356 46.8502C372.228 46.7612 372.138 46.6272 372.104 46.475C372.07 46.3227 372.095 46.1633 372.173 46.0284C372.2 45.9806 372.237 45.9399 372.283 45.9097C372.381 45.8439 372.497 45.8103 372.614 45.8136C372.732 45.8169 372.846 45.8569 372.94 45.928ZM380.193 52.0271C381.051 52.8397 381.899 53.6797 382.72 54.5379C382.826 54.6485 382.885 54.7957 382.885 54.9488C382.885 55.1019 382.826 55.2492 382.72 55.3597C382.668 55.4127 382.605 55.4548 382.536 55.4835C382.467 55.5122 382.393 55.5269 382.319 55.5269C382.244 55.5269 382.17 55.5122 382.101 55.4835C382.032 55.4548 381.97 55.4127 381.917 55.3597C381.114 54.5197 380.275 53.6888 379.436 52.8945C379.321 52.7925 379.25 52.6507 379.237 52.4981C379.223 52.3454 379.268 52.1933 379.363 52.0727L379.436 51.9997C379.543 51.9097 379.68 51.8627 379.82 51.8677C379.959 51.8728 380.092 51.9296 380.193 52.0271ZM386.661 58.9844C387.255 59.7057 387.829 60.4362 388.404 61.1849L388.86 61.7966C388.956 61.9133 389.002 62.063 388.988 62.2133C388.974 62.3636 388.902 62.5025 388.787 62.6001C388.725 62.6429 388.655 62.6728 388.582 62.6882C388.508 62.7035 388.432 62.704 388.358 62.6896C388.284 62.6751 388.214 62.646 388.151 62.604C388.088 62.562 388.035 62.5079 387.994 62.4449L387.537 61.8423C386.981 61.1118 386.415 60.3905 385.831 59.6783C385.726 59.5694 385.667 59.4237 385.667 59.272C385.667 59.1204 385.726 58.9747 385.831 58.8657C385.89 58.8133 385.958 58.7737 386.033 58.7493C386.108 58.7249 386.186 58.7162 386.264 58.724C386.343 58.7317 386.418 58.7556 386.487 58.7942C386.555 58.8327 386.614 58.8851 386.661 58.9479V58.9844ZM391.451 66.4714C391.585 66.4007 391.741 66.384 391.887 66.4248C392.033 66.4655 392.158 66.5606 392.236 66.6905C392.865 67.6948 393.486 68.7174 394.061 69.7492C394.1 69.8119 394.127 69.8819 394.14 69.9551C394.152 70.0284 394.15 70.1034 394.133 70.1757C394.116 70.248 394.085 70.3162 394.041 70.3762C393.997 70.4363 393.942 70.4869 393.878 70.5253C393.739 70.5872 393.582 70.5943 393.438 70.5452C393.295 70.4961 393.175 70.3944 393.103 70.2605C392.519 69.247 391.907 68.2335 391.278 67.2566C391.197 67.1406 391.162 66.9984 391.181 66.8581C391.2 66.7179 391.27 66.5897 391.378 66.4987L391.451 66.4714ZM396.077 74.6887C396.222 74.6362 396.383 74.641 396.525 74.702C396.667 74.763 396.781 74.8757 396.843 75.0174C397.345 76.0857 397.838 77.1722 398.285 78.2587C398.316 78.3256 398.334 78.3982 398.337 78.4721C398.34 78.5461 398.328 78.6198 398.301 78.6889C398.275 78.7581 398.235 78.8211 398.183 78.8743C398.132 78.9274 398.07 78.9696 398.002 78.9982C397.853 79.0405 397.694 79.0255 397.555 78.9562C397.417 78.887 397.309 78.7684 397.254 78.6239C396.816 77.5556 396.342 76.4874 395.84 75.4465C395.777 75.3333 395.756 75.2015 395.781 75.0745C395.806 74.9475 395.875 74.8334 395.977 74.7526C396 74.7032 396.034 74.6595 396.077 74.6248V74.6887ZM399.589 83.3626C399.741 83.3338 399.898 83.3628 400.03 83.4438C400.162 83.5249 400.258 83.6522 400.301 83.8008C400.648 84.9147 400.976 86.056 401.259 87.1882C401.281 87.2584 401.288 87.3324 401.279 87.4054C401.27 87.4784 401.246 87.5487 401.208 87.6117C401.17 87.6747 401.119 87.7289 401.059 87.7708C400.998 87.8127 400.93 87.8413 400.858 87.8547C400.705 87.8746 400.55 87.837 400.424 87.7493C400.298 87.6615 400.208 87.5299 400.173 87.3799C399.891 86.266 399.571 85.143 399.261 84.0565C399.222 83.9514 399.217 83.8369 399.247 83.7289C399.276 83.6209 399.339 83.5248 399.425 83.4539C399.466 83.3894 399.523 83.3361 399.589 83.2987V83.3626ZM401.779 92.356C401.935 92.3522 402.088 92.4058 402.207 92.5068C402.326 92.6077 402.405 92.749 402.427 92.9038C402.609 94.0451 402.755 95.2047 402.874 96.3551C402.883 96.4267 402.877 96.4993 402.856 96.5683C402.835 96.6372 402.799 96.701 402.752 96.7553C402.704 96.8096 402.646 96.8533 402.581 96.8835C402.515 96.9136 402.444 96.9296 402.372 96.9303C402.216 96.9286 402.066 96.8688 401.951 96.7625C401.836 96.6562 401.765 96.511 401.752 96.3551C401.633 95.2321 401.496 94.0999 401.314 92.9769C401.297 92.8823 401.306 92.785 401.34 92.6951C401.374 92.6052 401.431 92.526 401.505 92.4656C401.575 92.3796 401.671 92.3187 401.779 92.2921V92.356Z" fill="#393E46"/>
<path d="M411.769 238.132C409.324 236.671 405.876 236.872 402.044 239.045L332.559 279.218C325.142 283.501 319.121 293.69 319.121 301.971C319.121 306.016 320.562 308.847 322.898 310.189L330.352 314.489C332.788 315.877 336.191 315.658 339.968 313.476L409.461 273.302C416.879 269.02 422.891 258.83 422.891 250.549C422.891 246.532 421.468 243.692 419.15 242.332C417.882 241.638 412.992 238.862 411.769 238.132Z" fill="#E0E0E0"/>
<path d="M333.801 314.982C329.604 314.982 326.994 311.659 326.994 306.318C326.994 298.201 332.916 288.166 340.196 283.966L409.69 243.793C411.479 242.682 413.525 242.053 415.629 241.967C419.826 241.967 422.435 245.29 422.435 250.631C422.435 258.757 416.514 268.783 409.233 272.992L339.74 313.165C337.951 314.277 335.904 314.903 333.801 314.982Z" fill="#FAFAFA"/>
<path d="M415.629 242.387C419.543 242.387 422.015 245.537 422.015 250.604C422.015 258.584 416.194 268.436 409.042 272.517L339.548 312.691C337.829 313.764 335.861 314.375 333.837 314.462C332.97 314.491 332.108 314.321 331.318 313.965C330.527 313.609 329.828 313.076 329.275 312.408C327.979 310.627 327.335 308.454 327.45 306.254C327.45 298.283 333.271 288.431 340.424 284.341L409.917 244.167C411.637 243.093 413.604 242.483 415.629 242.396M415.629 241.483C413.442 241.565 411.316 242.22 409.461 243.382L339.968 283.555C332.55 287.847 326.538 298.027 326.538 306.308C326.538 312.106 329.485 315.439 333.837 315.439C336.022 315.354 338.147 314.703 340.004 313.549L409.498 273.375C416.915 269.093 422.928 258.903 422.928 250.622C422.928 244.824 419.981 241.492 415.629 241.492V241.483Z" fill="#EBEBEB"/>
<path d="M350.861 292.485C351.144 291.956 351.098 291.408 350.861 291.262L348.535 289.92C348.485 289.894 348.431 289.881 348.375 289.881C348.319 289.881 348.265 289.894 348.215 289.92L346.08 290.741L345.378 289.244C345.343 289.17 345.285 289.109 345.214 289.07L342.887 287.719C342.595 287.555 342.112 287.929 341.92 288.55L340.469 293.307C340.39 293.594 340.225 293.849 339.995 294.037L336.756 296.548C336.236 296.941 336.035 297.909 336.41 298.173L338.754 299.872C338.835 299.955 338.894 300.057 338.926 300.168C338.958 300.28 338.961 300.397 338.937 300.511L338.38 305.14C338.335 305.478 338.435 305.706 338.59 305.788L340.917 307.139C341.099 307.24 341.373 307.139 341.619 306.838L344.52 303.131C344.581 303.03 344.666 302.946 344.768 302.886C344.871 302.827 344.986 302.795 345.104 302.793L348.015 303.113C348.471 303.177 349.009 302.337 348.927 301.707L348.37 297.717C348.345 297.422 348.409 297.126 348.553 296.868L350.861 292.485Z" fill="#3D543D"/>
<path opacity="0.15" d="M350.834 291.243C350.784 291.22 350.729 291.208 350.674 291.208C350.619 291.208 350.565 291.22 350.515 291.243L347.267 292.485C347.224 292.506 347.178 292.518 347.131 292.52C347.084 292.522 347.037 292.514 346.994 292.497C346.95 292.48 346.91 292.453 346.877 292.42C346.844 292.387 346.818 292.346 346.801 292.302L346.053 290.714L348.188 289.901C348.238 289.876 348.292 289.863 348.348 289.863C348.403 289.863 348.458 289.876 348.507 289.901L350.834 291.243Z" fill="white"/>
<path opacity="0.15" d="M342.769 294.64C342.687 294.926 342.522 295.18 342.294 295.37L339.055 297.872C338.906 297.988 338.787 298.139 338.709 298.31L336.382 296.959C336.466 296.79 336.584 296.641 336.729 296.521L339.968 294.019C340.195 293.832 340.361 293.581 340.442 293.298L342.769 294.64Z" fill="white"/>
<path opacity="0.1" d="M345.205 289.061C344.913 288.87 344.42 289.244 344.219 289.883L342.769 294.64L340.442 293.289L341.893 288.532C342.085 287.911 342.568 287.536 342.86 287.701C342.924 287.701 344.895 288.888 345.196 289.052L345.205 289.061Z" fill="#304830"/>
<path opacity="0.25" d="M341.054 301.205L338.745 299.872L336.401 298.173C336.127 297.973 336.163 297.425 336.401 296.977L338.727 298.329C338.49 298.767 338.453 299.324 338.727 299.525L341.054 301.205Z" fill="#304830"/>
<path opacity="0.15" d="M340.716 306.473C340.716 306.811 340.771 307.039 340.944 307.13L338.608 305.779C338.516 305.701 338.449 305.599 338.413 305.484C338.378 305.369 338.376 305.247 338.408 305.131L338.964 300.502C338.987 300.392 338.984 300.279 338.956 300.171C338.927 300.064 338.874 299.964 338.8 299.881L341.108 301.214C341.183 301.295 341.237 301.393 341.265 301.499C341.294 301.606 341.296 301.718 341.272 301.825L340.716 306.473Z" fill="#304830"/>
<path d="M345.351 289.225L346.801 292.312C346.818 292.356 346.844 292.396 346.877 292.429C346.91 292.462 346.95 292.489 346.994 292.506C347.037 292.523 347.084 292.531 347.131 292.529C347.178 292.527 347.224 292.515 347.267 292.494L350.515 291.252C351.025 291.052 351.235 291.782 350.861 292.485L348.516 296.886C348.372 297.144 348.309 297.44 348.334 297.735L348.891 301.725C348.973 302.355 348.434 303.195 347.978 303.131L345.077 302.775C344.959 302.777 344.843 302.809 344.741 302.868C344.639 302.927 344.554 303.011 344.493 303.113L341.628 306.82C341.163 307.413 340.625 307.203 340.716 306.464L341.272 301.835C341.299 301.721 341.296 301.603 341.264 301.491C341.232 301.379 341.172 301.278 341.09 301.195L338.745 299.506C338.371 299.232 338.581 298.274 339.092 297.872L342.331 295.37C342.56 295.181 342.726 294.926 342.805 294.64L344.256 289.883C344.447 289.125 345.113 288.742 345.351 289.225Z" fill="#3D543D"/>
<path opacity="0.5" d="M345.351 289.225L346.801 292.312C346.818 292.356 346.844 292.396 346.877 292.429C346.91 292.462 346.95 292.489 346.994 292.506C347.037 292.523 347.084 292.531 347.131 292.529C347.178 292.527 347.224 292.515 347.267 292.494L350.515 291.252C351.025 291.052 351.235 291.782 350.861 292.485L348.516 296.886C348.372 297.144 348.309 297.44 348.334 297.735L348.891 301.725C348.973 302.355 348.434 303.195 347.978 303.131L345.077 302.775C344.959 302.777 344.843 302.809 344.741 302.868C344.639 302.927 344.554 303.011 344.493 303.113L341.628 306.82C341.163 307.413 340.625 307.203 340.716 306.464L341.272 301.835C341.299 301.721 341.296 301.603 341.264 301.491C341.232 301.379 341.172 301.278 341.09 301.195L338.745 299.506C338.371 299.232 338.581 298.274 339.092 297.872L342.331 295.37C342.56 295.181 342.726 294.926 342.805 294.64L344.256 289.883C344.447 289.125 345.113 288.742 345.351 289.225Z" fill="white"/>
<path d="M367.174 283.081C367.457 282.551 367.402 282.013 367.174 281.866L364.857 280.524C364.806 280.499 364.749 280.485 364.692 280.485C364.635 280.485 364.579 280.499 364.528 280.524L362.402 281.346L361.691 279.849C361.662 279.774 361.607 279.712 361.536 279.675L359.209 278.324C358.917 278.16 358.434 278.534 358.242 279.155L356.728 283.939C356.645 284.224 356.48 284.478 356.253 284.669L353.014 287.171C352.494 287.573 352.294 288.541 352.659 288.806L355.012 290.504C355.093 290.587 355.151 290.689 355.181 290.801C355.212 290.913 355.213 291.03 355.186 291.143L354.638 295.772C354.593 296.11 354.684 296.338 354.839 296.42L357.138 297.726C357.321 297.826 357.585 297.726 357.841 297.425L360.742 293.718C360.802 293.616 360.888 293.532 360.99 293.473C361.092 293.414 361.208 293.382 361.326 293.38L364.227 293.736C364.683 293.791 365.222 292.96 365.139 292.33L364.592 288.34C364.562 288.045 364.626 287.748 364.774 287.491L367.174 283.081Z" fill="#3D543D"/>
<path opacity="0.15" d="M367.119 281.857C367.069 281.835 367.015 281.823 366.96 281.823C366.905 281.823 366.85 281.835 366.8 281.857L363.525 283.099C363.482 283.12 363.435 283.132 363.387 283.134C363.34 283.136 363.292 283.129 363.248 283.111C363.203 283.094 363.163 283.068 363.129 283.035C363.095 283.001 363.068 282.961 363.05 282.917L362.311 281.328L364.437 280.515C364.488 280.49 364.544 280.477 364.601 280.477C364.658 280.477 364.714 280.49 364.765 280.515L367.119 281.857Z" fill="white"/>
<path opacity="0.15" d="M359.054 285.245C358.973 285.53 358.807 285.785 358.58 285.975L355.313 288.504C355.164 288.62 355.045 288.771 354.967 288.942L352.658 287.591C352.748 287.424 352.869 287.275 353.014 287.153L356.253 284.651C356.48 284.46 356.645 284.206 356.728 283.921L359.054 285.245Z" fill="white"/>
<path opacity="0.1" d="M361.49 279.666C361.198 279.474 360.705 279.849 360.505 280.488L359.054 285.245L356.728 283.939L358.178 279.182C358.37 278.561 358.853 278.187 359.145 278.351C359.209 278.351 361.18 279.538 361.472 279.693L361.49 279.666Z" fill="#304830"/>
<path opacity="0.25" d="M357.339 291.8L355.03 290.476L352.686 288.778C352.421 288.577 352.458 288.029 352.686 287.582L355.021 288.933C354.784 289.372 354.748 289.929 355.021 290.12L357.339 291.8Z" fill="#304830"/>
<path opacity="0.15" d="M356.965 297.069C356.919 297.416 357.02 297.644 357.184 297.735L354.857 296.384C354.702 296.293 354.611 296.073 354.657 295.736L355.213 291.106C355.234 290.997 355.23 290.885 355.202 290.777C355.173 290.67 355.121 290.57 355.049 290.486L357.357 291.809C357.432 291.891 357.486 291.989 357.514 292.095C357.543 292.202 357.545 292.314 357.521 292.421L356.965 297.069Z" fill="#304830"/>
<path d="M361.627 279.83L363.078 282.916C363.095 282.961 363.122 283.001 363.156 283.034C363.19 283.068 363.231 283.094 363.275 283.111C363.32 283.128 363.367 283.136 363.415 283.134C363.463 283.132 363.509 283.12 363.552 283.099L366.8 281.857C367.311 281.656 367.521 282.387 367.147 283.081L364.802 287.491C364.654 287.748 364.59 288.045 364.62 288.34L365.167 292.33C365.258 292.96 364.72 293.791 364.255 293.736L361.353 293.38C361.235 293.382 361.12 293.414 361.018 293.473C360.915 293.532 360.83 293.616 360.77 293.718L357.868 297.425C357.403 298.018 356.865 297.808 356.956 297.068L357.512 292.439C357.537 292.326 357.533 292.208 357.501 292.097C357.47 291.985 357.411 291.883 357.33 291.8L354.985 290.111C354.611 289.837 354.812 288.878 355.332 288.477L358.571 285.975C358.8 285.786 358.966 285.531 359.045 285.245L360.496 280.488C360.733 279.73 361.399 279.374 361.627 279.83Z" fill="#3D543D"/>
<path opacity="0.5" d="M361.627 279.83L363.078 282.916C363.095 282.961 363.122 283.001 363.156 283.034C363.19 283.068 363.231 283.094 363.275 283.111C363.32 283.128 363.367 283.136 363.415 283.134C363.463 283.132 363.509 283.12 363.552 283.099L366.8 281.857C367.311 281.656 367.521 282.387 367.147 283.081L364.802 287.491C364.654 287.748 364.59 288.045 364.62 288.34L365.167 292.33C365.258 292.96 364.72 293.791 364.255 293.736L361.353 293.38C361.235 293.382 361.12 293.414 361.018 293.473C360.915 293.532 360.83 293.616 360.77 293.718L357.868 297.425C357.403 298.018 356.865 297.808 356.956 297.068L357.512 292.439C357.537 292.326 357.533 292.208 357.501 292.097C357.47 291.985 357.411 291.883 357.33 291.8L354.985 290.111C354.611 289.837 354.812 288.878 355.332 288.477L358.571 285.975C358.8 285.786 358.966 285.531 359.045 285.245L360.496 280.488C360.733 279.73 361.399 279.374 361.627 279.83Z" fill="white"/>
<path d="M383.432 273.686C383.706 273.156 383.66 272.617 383.432 272.471L381.078 271.157C381.027 271.133 380.971 271.121 380.914 271.121C380.857 271.121 380.801 271.133 380.75 271.157L378.615 271.978L377.912 270.481C377.884 270.406 377.828 270.344 377.757 270.307L375.431 268.956C375.139 268.792 374.646 269.166 374.464 269.787L373.013 274.544C372.93 274.829 372.765 275.083 372.539 275.274L369.291 277.776C368.78 278.178 368.57 279.137 368.944 279.41L371.289 281.109C371.373 281.189 371.435 281.291 371.467 281.404C371.499 281.516 371.5 281.635 371.471 281.748L370.915 286.377C370.915 286.715 370.969 286.934 371.124 287.025L373.451 288.377C373.643 288.477 373.907 288.377 374.163 288.075L377.055 284.368C377.116 284.266 377.203 284.18 377.307 284.121C377.411 284.062 377.528 284.031 377.648 284.03L380.54 284.387C381.005 284.441 381.543 283.61 381.452 282.98L380.905 278.99C380.876 278.696 380.936 278.401 381.078 278.141L383.432 273.686Z" fill="#3D543D"/>
<path opacity="0.15" d="M383.405 272.462C383.353 272.44 383.297 272.428 383.24 272.428C383.184 272.428 383.128 272.44 383.076 272.462L379.837 273.704C379.794 273.725 379.748 273.737 379.7 273.739C379.652 273.741 379.605 273.733 379.56 273.716C379.516 273.699 379.475 273.673 379.441 273.639C379.407 273.606 379.381 273.566 379.363 273.521L378.615 271.933L380.75 271.12C380.799 271.095 380.854 271.082 380.909 271.082C380.965 271.082 381.019 271.095 381.069 271.12L383.405 272.462Z" fill="white"/>
<path opacity="0.15" d="M375.385 275.84C375.302 276.128 375.137 276.385 374.911 276.58L371.672 279.082C371.522 279.2 371.401 279.35 371.316 279.52L368.99 278.169C369.079 278.001 369.2 277.853 369.345 277.73L372.584 275.229C372.811 275.037 372.976 274.783 373.059 274.498L375.385 275.84Z" fill="white"/>
<path opacity="0.1" d="M377.775 270.244C377.483 270.052 376.982 270.426 376.79 271.056L375.385 275.84L373.059 274.498L374.509 269.741C374.701 269.121 375.184 268.746 375.476 268.911C375.54 268.911 377.502 270.097 377.803 270.253L377.775 270.244Z" fill="#304830"/>
<path opacity="0.25" d="M373.615 282.405L371.316 281.081L368.944 279.374C368.679 279.173 368.707 278.625 368.944 278.178L371.27 279.529C371.042 279.968 371.006 280.524 371.27 280.716L373.615 282.405Z" fill="#304830"/>
<path opacity="0.15" d="M373.25 287.674C373.205 288.021 373.305 288.249 373.469 288.34L371.143 286.989C370.988 286.897 370.896 286.678 370.933 286.341L371.489 281.702C371.513 281.595 371.511 281.484 371.484 281.378C371.457 281.272 371.406 281.173 371.334 281.091L373.633 282.414C373.705 282.498 373.757 282.596 373.785 282.702C373.814 282.808 373.818 282.918 373.798 283.026L373.25 287.674Z" fill="#304830"/>
<path d="M377.912 270.435L379.363 273.521C379.381 273.566 379.407 273.606 379.441 273.639C379.475 273.673 379.516 273.699 379.56 273.716C379.605 273.733 379.652 273.741 379.7 273.739C379.748 273.737 379.794 273.725 379.837 273.704L383.076 272.462C383.596 272.261 383.797 272.992 383.432 273.686L381.078 278.096C380.936 278.355 380.876 278.651 380.905 278.945L381.452 282.935C381.543 283.565 381.005 284.396 380.54 284.341L377.648 283.985C377.528 283.985 377.411 284.016 377.307 284.076C377.203 284.135 377.116 284.22 377.055 284.322L374.162 288.029C373.697 288.623 373.159 288.413 373.25 287.673L373.798 283.044C373.825 282.932 373.824 282.814 373.793 282.702C373.763 282.591 373.705 282.488 373.624 282.405L371.27 280.707C370.905 280.442 371.106 279.474 371.626 279.082L374.865 276.58C375.092 276.389 375.257 276.134 375.339 275.85L376.79 271.093C377.018 270.335 377.684 269.951 377.912 270.435Z" fill="#3D543D"/>
<path opacity="0.5" d="M377.912 270.435L379.363 273.521C379.381 273.566 379.407 273.606 379.441 273.639C379.475 273.673 379.516 273.699 379.56 273.716C379.605 273.733 379.652 273.741 379.7 273.739C379.748 273.737 379.794 273.725 379.837 273.704L383.076 272.462C383.596 272.261 383.797 272.992 383.432 273.686L381.078 278.096C380.936 278.355 380.876 278.651 380.905 278.945L381.452 282.935C381.543 283.565 381.005 284.396 380.54 284.341L377.648 283.985C377.528 283.985 377.411 284.016 377.307 284.076C377.203 284.135 377.116 284.22 377.055 284.322L374.162 288.029C373.697 288.623 373.159 288.413 373.25 287.673L373.798 283.044C373.825 282.932 373.824 282.814 373.793 282.702C373.763 282.591 373.705 282.488 373.624 282.405L371.27 280.707C370.905 280.442 371.106 279.474 371.626 279.082L374.865 276.58C375.092 276.389 375.257 276.134 375.339 275.85L376.79 271.093C377.018 270.335 377.684 269.951 377.912 270.435Z" fill="white"/>
<path d="M399.708 264.291C399.991 263.761 399.945 263.222 399.708 263.076L397.391 261.725C397.339 261.702 397.283 261.69 397.227 261.69C397.17 261.69 397.114 261.702 397.062 261.725L394.928 262.547L394.225 261.049C394.194 260.973 394.14 260.909 394.07 260.867C393.778 260.712 391.807 259.561 391.743 259.525C391.452 259.36 390.959 259.735 390.767 260.355L389.317 265.112C389.237 265.397 389.075 265.651 388.851 265.843L385.603 268.345C385.092 268.746 384.883 269.705 385.257 269.979L387.601 271.677C387.684 271.757 387.745 271.857 387.777 271.968C387.809 272.078 387.811 272.195 387.784 272.307L387.227 276.936C387.227 277.274 387.282 277.502 387.437 277.594L389.764 278.945C389.946 279.045 390.22 278.945 390.466 278.644L393.367 274.937C393.428 274.835 393.513 274.751 393.616 274.692C393.718 274.633 393.833 274.601 393.951 274.599L396.853 274.955C397.318 275.01 397.856 274.179 397.765 273.549L397.208 269.559C397.187 269.264 397.25 268.969 397.391 268.71L399.708 264.291Z" fill="#3D543D"/>
<path opacity="0.15" d="M399.681 263.067C399.631 263.044 399.576 263.032 399.521 263.032C399.466 263.032 399.412 263.044 399.362 263.067L396.114 264.309C396.071 264.33 396.025 264.341 395.978 264.343C395.931 264.345 395.884 264.338 395.841 264.32C395.797 264.303 395.757 264.277 395.724 264.244C395.691 264.21 395.665 264.17 395.648 264.126L394.9 262.537L397.035 261.725C397.084 261.698 397.139 261.683 397.195 261.683C397.251 261.683 397.306 261.698 397.354 261.725L399.681 263.067Z" fill="white"/>
<path opacity="0.15" d="M391.625 266.445C391.542 266.733 391.377 266.99 391.15 267.185L387.912 269.686C387.762 269.805 387.641 269.954 387.556 270.125L385.229 268.773C385.316 268.607 385.433 268.458 385.576 268.335L388.815 265.833C389.047 265.646 389.216 265.391 389.298 265.103L391.625 266.445Z" fill="white"/>
<path opacity="0.1" d="M394.061 260.876C393.769 260.684 393.267 261.058 393.075 261.688L391.625 266.445L389.298 265.103L390.749 260.346C390.931 259.725 391.424 259.351 391.716 259.515C391.78 259.515 393.741 260.702 394.043 260.857L394.061 260.876Z" fill="#304830"/>
<path opacity="0.25" d="M389.901 272.982L387.602 271.658L385.257 269.96C384.983 269.759 385.02 269.212 385.257 268.764L387.583 270.115C387.346 270.554 387.319 271.111 387.583 271.302L389.901 272.982Z" fill="#304830"/>
<path opacity="0.15" d="M389.527 278.278C389.527 278.625 389.59 278.853 389.755 278.945L387.41 277.548C387.255 277.456 387.164 277.237 387.2 276.899L387.757 272.261C387.778 272.154 387.775 272.044 387.749 271.938C387.722 271.832 387.672 271.733 387.602 271.649L389.901 272.973C389.972 273.056 390.024 273.155 390.051 273.261C390.078 273.367 390.079 273.478 390.056 273.585L389.527 278.278Z" fill="#304830"/>
<path d="M394.198 261.04L395.648 264.126C395.666 264.171 395.693 264.211 395.727 264.244C395.761 264.278 395.801 264.304 395.846 264.321C395.89 264.338 395.938 264.346 395.985 264.344C396.033 264.342 396.08 264.33 396.123 264.309L399.362 263.067C399.882 262.866 400.082 263.597 399.708 264.291L397.364 268.701C397.223 268.96 397.159 269.255 397.181 269.55L397.738 273.54C397.829 274.17 397.291 275.001 396.825 274.946L393.924 274.59C393.806 274.592 393.69 274.624 393.588 274.683C393.486 274.742 393.401 274.826 393.34 274.927L390.439 278.634C389.983 279.228 389.444 279.018 389.526 278.278L390.083 273.649C390.112 273.536 390.11 273.417 390.078 273.305C390.046 273.193 389.985 273.091 389.901 273.01L387.556 271.312C387.182 271.047 387.392 270.079 387.902 269.687L391.15 267.185C391.375 266.992 391.54 266.738 391.625 266.454L393.075 261.688C393.304 260.94 393.97 260.556 394.198 261.04Z" fill="#3D543D"/>
<path opacity="0.5" d="M394.198 261.04L395.648 264.126C395.666 264.171 395.693 264.211 395.727 264.244C395.761 264.278 395.801 264.304 395.846 264.321C395.89 264.338 395.938 264.346 395.985 264.344C396.033 264.342 396.08 264.33 396.123 264.309L399.362 263.067C399.882 262.866 400.082 263.597 399.708 264.291L397.364 268.701C397.223 268.96 397.159 269.255 397.181 269.55L397.738 273.54C397.829 274.17 397.291 275.001 396.825 274.946L393.924 274.59C393.806 274.592 393.69 274.624 393.588 274.683C393.486 274.742 393.401 274.826 393.34 274.927L390.439 278.634C389.983 279.228 389.444 279.018 389.526 278.278L390.083 273.649C390.112 273.536 390.11 273.417 390.078 273.305C390.046 273.193 389.985 273.091 389.901 273.01L387.556 271.312C387.182 271.047 387.392 270.079 387.902 269.687L391.15 267.185C391.375 266.992 391.54 266.738 391.625 266.454L393.075 261.688C393.304 260.94 393.97 260.556 394.198 261.04Z" fill="white"/>
<path d="M415.994 254.895C416.276 254.366 416.231 253.827 415.994 253.672L413.667 252.33C413.617 252.307 413.563 252.295 413.508 252.295C413.452 252.295 413.398 252.307 413.348 252.33L411.213 253.151L410.51 251.654C410.473 251.582 410.42 251.52 410.355 251.471C410.054 251.316 408.084 250.166 408.029 250.129C407.728 249.965 407.244 250.33 407.053 250.96L405.602 255.717C405.523 256.004 405.357 256.259 405.128 256.447L401.843 258.94C401.323 259.342 401.122 260.3 401.496 260.574L403.841 262.273C403.924 262.352 403.985 262.453 404.017 262.563C404.049 262.674 404.051 262.791 404.024 262.903L403.485 267.504C403.485 267.842 403.54 268.07 403.695 268.162L406.022 269.513C406.204 269.613 406.478 269.513 406.724 269.212L409.625 265.505C409.686 265.403 409.771 265.319 409.874 265.26C409.976 265.201 410.091 265.169 410.209 265.167L413.111 265.523C413.567 265.578 414.105 264.747 414.023 264.117L413.466 260.127C413.44 259.832 413.504 259.536 413.649 259.278L415.994 254.895Z" fill="#3D543D"/>
<path opacity="0.15" d="M415.966 253.672C415.917 253.647 415.862 253.634 415.807 253.634C415.751 253.634 415.696 253.647 415.647 253.672L412.399 254.914C412.357 254.934 412.311 254.946 412.264 254.948C412.217 254.95 412.17 254.942 412.126 254.925C412.082 254.908 412.042 254.882 412.009 254.848C411.976 254.815 411.95 254.775 411.934 254.731L411.186 253.142L413.32 252.32C413.37 252.295 413.425 252.281 413.48 252.281C413.536 252.281 413.59 252.295 413.64 252.32L415.966 253.672Z" fill="white"/>
<path opacity="0.15" d="M407.91 257.05C407.825 257.339 407.656 257.596 407.427 257.79L404.188 260.291C404.041 260.41 403.923 260.56 403.841 260.73L401.515 259.378C401.598 259.21 401.716 259.06 401.861 258.94L405.1 256.438C405.33 256.25 405.495 255.995 405.575 255.708L407.91 257.05Z" fill="white"/>
<path opacity="0.1" d="M410.346 251.471C410.054 251.289 409.553 251.663 409.361 252.293L407.91 257.05L405.575 255.708L407.025 250.951C407.217 250.33 407.71 249.956 408.002 250.12C408.065 250.12 410.027 251.307 410.328 251.462L410.346 251.471Z" fill="#304830"/>
<path opacity="0.25" d="M406.186 263.615L403.878 262.291L401.533 260.593C401.259 260.392 401.296 259.844 401.533 259.396L403.86 260.748C403.622 261.186 403.586 261.743 403.86 261.935L406.186 263.615Z" fill="#304830"/>
<path opacity="0.15" d="M405.812 268.883C405.812 269.23 405.867 269.458 406.04 269.54L403.668 268.189C403.513 268.098 403.421 267.879 403.458 267.532L404.015 262.902C404.037 262.795 404.034 262.683 404.005 262.577C403.977 262.471 403.924 262.373 403.85 262.291L406.159 263.615C406.231 263.697 406.283 263.796 406.31 263.902C406.337 264.008 406.338 264.119 406.314 264.226L405.812 268.883Z" fill="#304830"/>
<path d="M410.483 251.645L411.934 254.731C411.951 254.775 411.978 254.816 412.012 254.849C412.046 254.883 412.087 254.909 412.131 254.926C412.176 254.943 412.223 254.951 412.271 254.949C412.319 254.947 412.365 254.935 412.408 254.914L415.647 253.672C416.158 253.471 416.368 254.202 415.994 254.895L413.649 259.287C413.504 259.545 413.44 259.841 413.466 260.136L414.023 264.126C414.105 264.756 413.567 265.587 413.111 265.532L410.209 265.176C410.091 265.178 409.976 265.21 409.874 265.269C409.771 265.328 409.686 265.413 409.625 265.514L406.724 269.221C406.268 269.815 405.73 269.595 405.812 268.865L406.368 264.236C406.395 264.123 406.392 264.004 406.36 263.893C406.328 263.781 406.268 263.679 406.186 263.597L403.841 261.898C403.467 261.634 403.677 260.666 404.188 260.273L407.436 257.772C407.656 257.576 407.817 257.323 407.901 257.041L409.352 252.275C409.589 251.545 410.255 251.152 410.483 251.645Z" fill="#3D543D"/>
<path opacity="0.5" d="M410.483 251.645L411.934 254.731C411.951 254.775 411.978 254.816 412.012 254.849C412.046 254.883 412.087 254.909 412.131 254.926C412.176 254.943 412.223 254.951 412.271 254.949C412.319 254.947 412.365 254.935 412.408 254.914L415.647 253.672C416.158 253.471 416.368 254.202 415.994 254.895L413.649 259.287C413.504 259.545 413.44 259.841 413.466 260.136L414.023 264.126C414.105 264.756 413.567 265.587 413.111 265.532L410.209 265.176C410.091 265.178 409.976 265.21 409.874 265.269C409.771 265.328 409.686 265.413 409.625 265.514L406.724 269.221C406.268 269.815 405.73 269.595 405.812 268.865L406.368 264.236C406.395 264.123 406.392 264.004 406.36 263.893C406.328 263.781 406.268 263.679 406.186 263.597L403.841 261.898C403.467 261.634 403.677 260.666 404.188 260.273L407.436 257.772C407.656 257.576 407.817 257.323 407.901 257.041L409.352 252.275C409.589 251.545 410.255 251.152 410.483 251.645Z" fill="white"/>
<path d="M422.207 29.2012L414.908 32.3329L413.348 40.1212C413.303 40.3351 413.2 40.5325 413.05 40.691C412.899 40.8496 412.708 40.9632 412.497 41.0191C412.286 41.0751 412.063 41.0711 411.854 41.0076C411.645 40.9441 411.458 40.8237 411.313 40.6599L406.086 34.6794L398.194 35.5925C397.968 35.6267 397.737 35.5939 397.529 35.4979C397.322 35.402 397.147 35.2472 397.026 35.0528C396.906 34.8584 396.845 34.6329 396.852 34.4042C396.858 34.1755 396.931 33.9538 397.062 33.7664L401.122 26.946L397.82 19.7239C397.739 19.5299 397.713 19.3179 397.742 19.1101C397.772 18.9023 397.857 18.7064 397.989 18.5429C398.121 18.3794 398.294 18.2544 398.49 18.1811C398.687 18.1077 398.9 18.0887 399.106 18.1261L406.843 19.8882L412.682 14.5104C412.842 14.3604 413.041 14.2586 413.257 14.2167C413.472 14.1749 413.695 14.1946 413.9 14.2737C414.105 14.3528 414.283 14.4881 414.415 14.664C414.546 14.8399 414.625 15.0493 414.643 15.2682L415.364 23.1752L422.28 27.0647C422.483 27.1633 422.654 27.319 422.771 27.5129C422.888 27.7067 422.946 27.9304 422.938 28.1567C422.931 28.3831 422.857 28.6023 422.727 28.7877C422.598 28.9731 422.417 29.1168 422.207 29.2012Z" fill="#E0E0E0"/>
<path d="M381.981 15.67C381.917 15.7542 381.84 15.8281 381.753 15.8891C381.599 16.0006 381.416 16.0665 381.225 16.0795C381.035 16.0924 380.845 16.0517 380.677 15.9622L376.617 13.8257L372.548 15.9622C372.379 16.0517 372.189 16.0924 371.999 16.0795C371.809 16.0665 371.626 16.0006 371.471 15.8891C371.315 15.7783 371.193 15.6245 371.122 15.4463C371.051 15.2681 371.033 15.0731 371.07 14.8848L371.845 10.3196L368.552 7.11483C368.414 6.98175 368.318 6.81254 368.272 6.62674C368.227 6.44094 368.235 6.24614 368.296 6.06483C368.353 5.88316 368.461 5.72147 368.606 5.59861C368.751 5.47575 368.929 5.39678 369.117 5.37092L373.679 4.71353L375.714 0.586597C375.797 0.41616 375.927 0.272716 376.089 0.172626C376.25 0.0725358 376.436 0.0198292 376.626 0.0205144C376.815 0.0219199 377.001 0.0754891 377.162 0.175346C377.322 0.275203 377.453 0.417489 377.538 0.586597L379.573 4.71353L384.135 5.37092C384.323 5.39851 384.5 5.47831 384.646 5.60133C384.791 5.72434 384.9 5.88565 384.959 6.06704C385.017 6.24843 385.024 6.44268 384.979 6.62783C384.933 6.81298 384.837 6.98167 384.7 7.11483L381.407 10.3196L382.191 14.8848C382.226 15.1639 382.151 15.4457 381.981 15.67ZM368.999 6.18353L368.944 6.30222C368.921 6.3704 368.919 6.44367 368.936 6.51329C368.954 6.58291 368.992 6.64593 369.044 6.69482L372.566 10.137L371.736 14.9943C371.724 15.0658 371.733 15.1391 371.761 15.2059C371.789 15.2728 371.834 15.3306 371.893 15.3731C371.951 15.4157 372.02 15.4412 372.093 15.4468C372.165 15.4525 372.237 15.4381 372.301 15.4052L376.662 13.1135L381.014 15.4052C381.077 15.4413 381.147 15.4603 381.22 15.4603C381.292 15.4603 381.362 15.4413 381.425 15.4052C381.485 15.3636 381.533 15.3051 381.56 15.2369C381.588 15.1687 381.595 15.0938 381.58 15.0217L380.75 10.1644L384.271 6.72222C384.322 6.6721 384.358 6.60905 384.376 6.53987C384.394 6.4707 384.392 6.398 384.372 6.32961C384.351 6.26018 384.311 6.19821 384.256 6.15121C384.201 6.10421 384.133 6.07421 384.062 6.06483L379.18 5.35266L376.954 0.897031C376.924 0.830691 376.875 0.774616 376.814 0.735689C376.752 0.696763 376.68 0.676679 376.608 0.677902C376.542 0.685167 376.479 0.709082 376.424 0.747408C376.37 0.785734 376.326 0.837216 376.297 0.897031L374.126 5.31614L369.245 6.02831C369.147 6.0482 369.059 6.10341 368.999 6.18353Z" fill="#E0E0E0"/>
<path d="M331.173 76.6792C324.303 72.6983 314.86 73.237 304.423 79.2631C283.439 91.4065 266.387 121.144 266.387 145.696C266.387 158.049 270.711 166.696 277.673 170.74C279.288 171.653 285.601 175.306 285.601 175.306C285.305 178.084 284.346 180.751 282.804 183.08C281.262 185.41 279.183 187.334 276.742 188.691C276.341 188.919 276.587 189.312 276.943 189.512L286.586 195.091C286.716 195.169 286.864 195.213 287.015 195.219C296.513 195.219 307.506 188.828 310.572 175.552C311.721 175.004 312.88 174.411 314.057 173.726C335.041 161.592 352.093 131.845 352.093 107.302C352.093 94.9399 347.777 86.3026 340.816 82.2304L331.173 76.6792Z" fill="#37474F"/>
<path d="M314.057 84.8326C293.073 96.9669 276.021 126.714 276.021 151.256C276.021 167.919 283.859 177.89 295.464 178.803C295.026 184.098 293.484 190.051 286.34 194.26C285.774 194.598 286.513 195.228 286.988 195.228C296.485 195.228 307.479 188.837 310.545 175.561C311.694 175.013 312.853 174.42 314.03 173.735C335.014 161.601 352.066 131.854 352.066 107.312C352.066 82.7692 335.059 72.6983 314.057 84.8326Z" fill="#393E46"/>
<path d="M286.367 194.26C286.021 194.479 286.176 194.799 286.468 195.018L276.943 189.54C276.587 189.321 276.341 188.946 276.742 188.709C279.188 187.35 281.271 185.42 282.813 183.083C284.355 180.747 285.312 178.073 285.601 175.287L286.65 175.908L287.617 176.474C290.034 177.804 292.712 178.589 295.463 178.775C295.035 184.098 293.484 190.051 286.367 194.26Z" fill="#263238"/>
<path d="M310.043 155.1C309.03 154.379 308.519 153.082 308.519 151.211C308.541 149.26 309.056 147.348 310.015 145.65C310.887 143.953 312.214 142.534 313.847 141.551C315.398 140.656 316.672 140.549 317.67 141.231C318.664 141.907 319.166 143.185 319.166 145.057C319.137 147.041 318.613 148.987 317.643 150.717C316.792 152.431 315.477 153.871 313.847 154.872C312.333 155.739 311.065 155.821 310.043 155.1ZM308.683 105.467L319.002 99.5051L317.278 134.31L310.408 138.282L308.683 105.467Z" fill="#FAFAFA"/>
<path opacity="0.2" d="M319.13 170.403C330.333 162.185 339.995 149.156 345.907 135.168C334.704 143.395 325.042 156.415 319.13 170.403Z" fill="#304830"/>
<path d="M390.767 217.972C386.881 218.018 383.988 215.297 382.173 211.873C393.814 197.547 401.688 178.465 401.688 161.774C401.688 149.403 397.354 140.711 390.375 136.693L380.75 131.142C373.88 127.17 364.446 127.718 354.018 133.735C333.034 145.878 315.982 175.616 315.982 200.168C315.982 212.521 320.298 221.168 327.259 225.231C328.883 226.144 335.278 229.851 336.857 230.773C343.736 234.781 353.197 234.251 363.652 228.207C366.452 226.576 369.11 224.713 371.599 222.637C378.66 228.234 387.273 222.135 390.685 219.214C391.141 218.83 391.196 217.972 390.767 217.972Z" fill="#E0E0E0"/>
<path d="M346.82 232.809C334.102 232.809 326.21 222.446 326.21 205.774C326.21 181.45 343.143 151.904 363.944 139.861C369.765 136.501 375.33 134.794 380.485 134.794C393.194 134.794 401.095 145.148 401.095 161.829C401.095 177.78 393.669 196.835 381.717 211.544L381.471 211.854L381.653 212.201C383.797 216.246 386.908 218.51 390.43 218.593C390.405 218.669 390.361 218.738 390.302 218.794C387.875 220.875 383.058 224.354 378.068 224.354C375.845 224.364 373.688 223.602 371.964 222.199L371.59 221.907L371.216 222.208C368.75 224.249 366.12 226.081 363.351 227.687C357.54 231.056 351.974 232.809 346.82 232.809Z" fill="#FAFAFA"/>
<path d="M380.485 134.201V135.388C392.829 135.388 400.502 145.522 400.502 161.82C400.502 177.652 393.13 196.561 381.261 211.17L380.759 211.782L381.133 212.476C383.104 216.201 385.877 218.492 389.061 219.068C386.534 221.085 382.346 223.779 378.067 223.779C375.978 223.789 373.949 223.072 372.329 221.752L371.581 221.158L370.842 221.77C368.402 223.807 365.799 225.64 363.059 227.248C357.33 230.554 351.865 232.234 346.82 232.234C334.475 232.234 326.803 222.099 326.803 205.756C326.803 181.624 343.599 152.288 364.209 140.355C369.938 137.049 375.403 135.369 380.449 135.369V134.201M380.449 134.201C375.376 134.201 369.665 135.853 363.616 139.35C342.632 151.485 325.58 181.222 325.58 205.774C325.58 223.258 334.22 233.402 346.783 233.402C351.856 233.402 357.567 231.75 363.616 228.253C366.416 226.622 369.074 224.759 371.562 222.683C373.387 224.175 375.675 224.982 378.031 224.966C383.25 224.966 388.24 221.314 390.649 219.259C391.105 218.876 391.16 218.018 390.731 218.018H390.64C386.808 218.018 383.943 215.324 382.136 211.919C393.778 197.593 401.652 178.51 401.652 161.82C401.652 144.335 393.012 134.201 380.449 134.201Z" fill="#3D543D"/>
<path d="M361.7 187.933C362.807 185.276 364.077 182.69 365.504 180.19C366.487 178.475 367.383 176.711 368.187 174.904C368.74 173.665 369.035 172.326 369.053 170.969C369.053 169.143 368.506 168.02 367.411 167.581C366.316 167.143 364.875 167.463 363.059 168.494C361.264 169.549 359.693 170.944 358.434 172.603C357.028 174.44 355.88 176.462 355.021 178.611L348.316 177.232C349.816 173.267 351.941 169.568 354.611 166.276C357.223 163.045 360.409 160.324 364.008 158.25C368.266 155.815 371.675 155.054 374.235 155.968C376.796 156.881 378.079 159.492 378.086 163.801C378.098 165.747 377.846 167.685 377.337 169.563C376.887 171.263 376.277 172.917 375.513 174.502C374.792 175.981 373.852 177.743 372.712 179.789C371.606 181.676 370.607 183.624 369.719 185.623C369.108 187.067 368.797 188.62 368.807 190.188L360.441 195.027C360.407 192.604 360.834 190.196 361.7 187.933ZM360.787 211.425C359.775 210.704 359.264 209.408 359.264 207.527C359.286 205.577 359.801 203.664 360.76 201.966C361.631 200.272 362.954 198.853 364.583 197.867C366.143 196.954 367.411 196.863 368.415 197.547C369.418 198.232 369.911 199.51 369.911 201.382C369.88 203.363 369.357 205.306 368.387 207.034C367.537 208.75 366.218 210.191 364.583 211.188C363.114 212.065 361.855 212.138 360.833 211.425H360.787Z" fill="#393E46"/>
</svg>
