<svg width="371" height="370" viewBox="0 0 371 370" fill="none" xmlns="http://www.w3.org/2000/svg">
<rect width="370.667" height="369.333" fill="white"/>
<path d="M72.7333 31.7333C71.4 32.2666 71 56.1333 71 145.467C71 247.333 71.2667 258.533 73.1333 259.333C74.3333 259.733 88.0667 260.133 103.8 260.133C125.533 260.133 132.467 260.533 132.867 261.733C141.133 295.733 163.8 324.533 194.467 340C213.4 349.6 240.267 353.967 259.333 350.633L277.833 346.133L285.333 343.133L292.333 340.133L282.5 342L258.733 348.267C233.933 348 215.667 340.267 196.6 322.267C181.8 308.133 169.8 290 162.467 270.267C160.6 265.333 159 260.933 159 260.667C159 260.4 168.067 260 179.267 259.867L199.4 259.467L201 251.467C203.267 240.667 205.933 220 205.267 219.2C204.867 218.933 203 221.867 201 225.733C196.067 235.2 189.4 243.333 182.467 248.133C175.533 252.8 160.867 257.2 158.867 255.2C155.533 251.867 154.067 224 156.333 206.8C160.733 172.933 177.667 145.867 201.8 133.867C213.4 128 224.467 125.467 238.467 125.467C253 125.467 263.667 128.533 276.6 136.133C288.067 143.067 304.2 159.2 312.333 172C315.667 177.2 318.733 181.467 319.4 181.467C319.933 181.467 320.333 174.667 320.333 166.267V151.2L314.333 145.6C303.933 136 292.2 129.333 277 124.4C267.133 121.067 232.333 121.2 219.667 124.533C199.667 129.867 181.8 138.8 170.867 149.067C167.533 152.267 164.333 154.8 163.8 154.8C163.4 154.8 163 151.467 163 147.467C163 139.2 163.933 139.733 143.933 138.133C120.333 136.267 106.6 128 100.333 111.467C97.4 103.867 97.1333 101.733 97.1333 68.7999L97 34.1333L123.533 34.2666C138.2 34.3999 154.733 35.1999 160.2 36.1333C171.933 37.9999 186.6 44.5333 194.6 51.3333C197.533 53.9999 200.467 56.1333 200.867 56.1333C201.4 56.1333 201.533 50.5333 201.4 43.7333L201 31.4666L137.667 31.3333C102.867 31.1999 73.5333 31.3333 72.7333 31.7333ZM103.667 123.6C109.4 132.267 117.267 138 135.8 147.467C143.8 151.467 152.067 156.133 154.2 157.867L158.067 161.067L152.067 169.6C136.733 191.2 130.467 211.733 130.733 239.867V257.6L113.933 257.2L97 256.8L96.7333 183.467C96.6 134 96.8667 111.2 97.8 113.467C98.6 115.2 101.133 119.867 103.667 123.6Z" fill="black"/>
<path d="M330.933 276.4C330.4 281.2 323.867 299.6 320.267 306.267C314.133 318 304.933 328.533 295.2 334.933C290.133 338.267 284.8 341.333 283.333 341.733C281.2 342.267 281.467 342.4 284.267 342.533C291.733 342.8 315.2 328 326.4 315.867L332.133 309.6L331.6 291.867C331.467 282 331.067 275.067 330.933 276.4Z" fill="black"/>
</svg>
