<svg width="40" height="40" viewBox="0 0 40 40" fill="none" xmlns="http://www.w3.org/2000/svg">
<path d="M21.0251 30.2625C20.8063 30.2608 20.5901 30.2151 20.3893 30.1282C20.1885 30.0412 20.0072 29.9147 19.8563 29.7563C17.1563 26.925 10.8813 19.7562 10.8813 14.5812C10.8813 6.875 16.9563 4.08125 21.0376 4.08125C25.1188 4.08125 30.6876 7.3375 30.6876 14.5812C30.6876 19.9187 24.7688 26.9562 22.2188 29.7312C22.0703 29.8956 21.889 30.0272 21.6867 30.1176C21.4844 30.208 21.2654 30.2552 21.0438 30.2562L21.0251 30.2625ZM21.0251 5.33125C17.4438 5.33125 12.1188 7.79375 12.1188 14.5812C12.1188 19.4625 18.7251 26.7687 20.7501 28.8937C20.7841 28.9312 20.8256 28.9611 20.8719 28.9816C20.9182 29.002 20.9682 29.0126 21.0188 29.0125C21.1213 29.0074 21.2177 28.9626 21.2876 28.8875C23.1938 26.8063 29.4126 19.6187 29.4126 14.5812C29.4376 8.2 24.5251 5.33125 21.0376 5.33125H21.0251Z" fill="#393E46"/>
<path d="M20.7876 18.925C19.7431 18.925 18.722 18.6153 17.8535 18.0349C16.985 17.4546 16.3081 16.6298 15.9084 15.6648C15.5086 14.6998 15.404 13.6379 15.6078 12.6134C15.8116 11.589 16.3146 10.6479 17.0532 9.90934C17.7918 9.17074 18.7328 8.66775 19.7573 8.46398C20.7817 8.2602 21.8436 8.36478 22.8086 8.76451C23.7737 9.16423 24.5985 9.84115 25.1788 10.7096C25.7591 11.5781 26.0688 12.5992 26.0688 13.6437C26.0655 15.0434 25.5081 16.3848 24.5184 17.3745C23.5286 18.3642 22.1873 18.9217 20.7876 18.925ZM20.7876 9.6125C19.9903 9.6125 19.2109 9.84893 18.548 10.2919C17.885 10.7348 17.3683 11.3644 17.0632 12.1011C16.7581 12.8377 16.6783 13.6482 16.8338 14.4302C16.9894 15.2122 17.3733 15.9305 17.9371 16.4943C18.5009 17.0581 19.2192 17.442 20.0011 17.5975C20.7831 17.7531 21.5937 17.6733 22.3303 17.3681C23.0669 17.063 23.6965 16.5463 24.1395 15.8834C24.5824 15.2205 24.8188 14.4411 24.8188 13.6437C24.8172 12.5751 24.3919 11.5507 23.6363 10.795C22.8806 10.0394 21.8562 9.61415 20.7876 9.6125Z" fill="#393E46"/>
<path d="M34.6873 34.4812H6.87484C6.76412 34.4808 6.65551 34.4509 6.56012 34.3947C6.46473 34.3385 6.38598 34.2579 6.33194 34.1613C6.2779 34.0647 6.2505 33.9554 6.25255 33.8447C6.2546 33.734 6.28601 33.6258 6.34359 33.5313L11.2498 25.625C11.3061 25.5349 11.3845 25.4607 11.4774 25.4093C11.5704 25.3579 11.6749 25.331 11.7811 25.3312H17.3123C17.4781 25.3312 17.6371 25.3971 17.7543 25.5143C17.8715 25.6315 17.9373 25.7905 17.9373 25.9562C17.9373 26.122 17.8715 26.281 17.7543 26.3982C17.6371 26.5154 17.4781 26.5812 17.3123 26.5812H12.1061L7.99984 33.2312H33.5811L29.5748 26.5625H24.6123C24.4466 26.5625 24.2876 26.4967 24.1704 26.3794C24.0532 26.2622 23.9873 26.1033 23.9873 25.9375C23.9873 25.7717 24.0532 25.6128 24.1704 25.4956C24.2876 25.3783 24.4466 25.3125 24.6123 25.3125H29.9311C30.0379 25.3129 30.1428 25.3408 30.2358 25.3933C30.3288 25.4458 30.4068 25.5213 30.4623 25.6125L35.2248 33.5375C35.2811 33.6324 35.3112 33.7405 35.3122 33.8508C35.3132 33.9611 35.2849 34.0697 35.2303 34.1656C35.1757 34.2614 35.0967 34.3411 35.0014 34.3966C34.906 34.452 34.7977 34.4812 34.6873 34.4812Z" fill="#393E46"/>
</svg>
