<svg width="99" height="26" viewBox="0 0 99 26" fill="none" xmlns="http://www.w3.org/2000/svg">
<path d="M18 19.04C18 18.9867 18.0533 18.96 18.16 18.96C18.24 18.96 18.3067 18.9733 18.36 19C18.44 19.0267 18.48 19.0667 18.48 19.12C18.24 20.8 18.12 22.56 18.12 24.4C18.12 24.6133 18.0667 24.7733 17.96 24.88C17.88 24.96 17.72 25 17.48 25H0.72C0.666667 25 0.64 24.92 0.64 24.76C0.64 24.6 0.666667 24.52 0.72 24.52C1.73333 24.52 2.46667 24.4533 2.92 24.32C3.4 24.1867 3.72 23.9333 3.88 23.56C4.06667 23.16 4.16 22.56 4.16 21.76V3.24C4.16 2.44 4.06667 1.85333 3.88 1.48C3.72 1.10667 3.4 0.853331 2.92 0.719998C2.46667 0.559998 1.73333 0.479999 0.72 0.479999C0.666667 0.479999 0.64 0.399999 0.64 0.239999C0.64 0.0799998 0.666667 0 0.72 0H16.8C17.04 0 17.16 0.119999 17.16 0.359998L17.24 5.28C17.24 5.36 17.1733 5.41333 17.04 5.44C16.9067 5.44 16.8267 5.4 16.8 5.32C16.72 3.90667 16.2933 2.81333 15.52 2.04C14.7467 1.24 13.72 0.839999 12.44 0.839999H10C9.06667 0.839999 8.37333 0.919998 7.92 1.08C7.49333 1.21333 7.18667 1.46666 7 1.84C6.84 2.18666 6.76 2.72 6.76 3.44V11.56H11.64C12.92 11.56 13.8267 11.3467 14.36 10.92C14.92 10.4933 15.2 9.77333 15.2 8.76C15.2 8.70667 15.28 8.68 15.44 8.68C15.6 8.68 15.68 8.70667 15.68 8.76L15.64 12C15.64 12.7733 15.6533 13.36 15.68 13.76L15.72 15.68C15.72 15.7333 15.64 15.76 15.48 15.76C15.32 15.76 15.24 15.7333 15.24 15.68C15.24 14.5067 14.9467 13.6667 14.36 13.16C13.8 12.6533 12.8533 12.4 11.52 12.4H6.76V21.6C6.76 22.3467 6.84 22.8933 7 23.24C7.16 23.5867 7.45333 23.8267 7.88 23.96C8.30667 24.0933 8.97333 24.16 9.88 24.16H13.08C14.36 24.16 15.4267 23.7067 16.28 22.8C17.1333 21.8933 17.7067 20.64 18 19.04ZM50.1644 24.52C50.2444 24.52 50.2844 24.6 50.2844 24.76C50.2844 24.92 50.2444 25 50.1644 25C49.551 25 49.0577 24.9867 48.6844 24.96L46.5244 24.92L44.3644 24.96C43.991 24.9867 43.4977 25 42.8844 25C42.8044 25 42.7644 24.92 42.7644 24.76C42.7644 24.6 42.8044 24.52 42.8844 24.52C43.6044 24.52 44.1377 24.4533 44.4844 24.32C44.831 24.16 45.071 23.8933 45.2044 23.52C45.3377 23.12 45.4044 22.5333 45.4044 21.76V15.4C45.4044 13.8267 45.1244 12.6667 44.5644 11.92C44.0044 11.1467 43.1377 10.76 41.9644 10.76C41.1644 10.76 40.351 10.9867 39.5244 11.44C38.7244 11.8667 37.9777 12.48 37.2844 13.28C37.311 13.4133 37.3244 13.6267 37.3244 13.92V21.76C37.3244 22.56 37.391 23.1467 37.5244 23.52C37.6577 23.8933 37.8977 24.16 38.2444 24.32C38.591 24.4533 39.1244 24.52 39.8444 24.52C39.9244 24.52 39.9644 24.6 39.9644 24.76C39.9644 24.92 39.9244 25 39.8444 25C39.231 25 38.7377 24.9867 38.3644 24.96L36.2044 24.92L34.0044 24.96C33.6577 24.9867 33.1777 25 32.5644 25C32.4844 25 32.4444 24.92 32.4444 24.76C32.4444 24.6 32.4844 24.52 32.5644 24.52C33.2844 24.52 33.8177 24.4533 34.1644 24.32C34.511 24.16 34.7377 23.8933 34.8444 23.52C34.9777 23.1467 35.0444 22.56 35.0444 21.76V15.4C35.0444 13.8267 34.7644 12.6667 34.2044 11.92C33.6444 11.1467 32.791 10.76 31.6444 10.76C30.8444 10.76 30.0444 10.9733 29.2444 11.4C28.4444 11.8267 27.711 12.4267 27.0444 13.2V21.76C27.0444 22.56 27.0977 23.1467 27.2044 23.52C27.3377 23.8933 27.5777 24.16 27.9244 24.32C28.271 24.4533 28.8044 24.52 29.5244 24.52C29.6044 24.52 29.6444 24.6 29.6444 24.76C29.6444 24.92 29.6044 25 29.5244 25C28.911 25 28.431 24.9867 28.0844 24.96L25.9244 24.92L23.7244 24.96C23.3777 24.9867 22.8977 25 22.2844 25C22.2044 25 22.1644 24.92 22.1644 24.76C22.1644 24.6 22.2044 24.52 22.2844 24.52C23.0044 24.52 23.5377 24.4533 23.8844 24.32C24.231 24.16 24.4577 23.8933 24.5644 23.52C24.6977 23.1467 24.7644 22.56 24.7644 21.76V13.84C24.7644 12.9333 24.6577 12.28 24.4444 11.88C24.231 11.48 23.871 11.28 23.3644 11.28C22.9377 11.28 22.2177 11.48 21.2044 11.88H21.1244C21.0177 11.88 20.9377 11.8267 20.8844 11.72C20.8577 11.5867 20.8977 11.4933 21.0044 11.44L25.6444 9.24C25.6977 9.21333 25.7777 9.2 25.8844 9.2C26.1244 9.2 26.3777 9.50667 26.6444 10.12C26.911 10.7333 27.0444 11.52 27.0444 12.48V12.52C28.0044 11.3467 28.9644 10.4933 29.9244 9.96C30.8844 9.42667 31.8844 9.16 32.9244 9.16C34.1244 9.16 35.0977 9.45333 35.8444 10.04C36.591 10.6267 37.0577 11.5067 37.2444 12.68C38.231 11.48 39.2177 10.6 40.2044 10.04C41.191 9.45333 42.2177 9.16 43.2844 9.16C44.6977 9.16 45.7777 9.57333 46.5244 10.4C47.2977 11.2 47.6844 12.4 47.6844 14V21.76C47.6844 22.56 47.7377 23.1467 47.8444 23.52C47.9777 23.8933 48.2177 24.16 48.5644 24.32C48.911 24.4533 49.4444 24.52 50.1644 24.52ZM80.6722 24.52C80.7522 24.52 80.7922 24.6 80.7922 24.76C80.7922 24.92 80.7522 25 80.6722 25C80.0589 25 79.5655 24.9867 79.1922 24.96L77.0322 24.92L74.8722 24.96C74.4989 24.9867 74.0055 25 73.3922 25C73.3122 25 73.2722 24.92 73.2722 24.76C73.2722 24.6 73.3122 24.52 73.3922 24.52C74.1122 24.52 74.6455 24.4533 74.9922 24.32C75.3389 24.16 75.5789 23.8933 75.7122 23.52C75.8455 23.12 75.9122 22.5333 75.9122 21.76V15.4C75.9122 13.8267 75.6322 12.6667 75.0722 11.92C74.5122 11.1467 73.6455 10.76 72.4722 10.76C71.6722 10.76 70.8589 10.9867 70.0322 11.44C69.2322 11.8667 68.4855 12.48 67.7922 13.28C67.8189 13.4133 67.8322 13.6267 67.8322 13.92V21.76C67.8322 22.56 67.8989 23.1467 68.0322 23.52C68.1655 23.8933 68.4055 24.16 68.7522 24.32C69.0989 24.4533 69.6322 24.52 70.3522 24.52C70.4322 24.52 70.4722 24.6 70.4722 24.76C70.4722 24.92 70.4322 25 70.3522 25C69.7389 25 69.2455 24.9867 68.8722 24.96L66.7122 24.92L64.5122 24.96C64.1655 24.9867 63.6855 25 63.0722 25C62.9922 25 62.9522 24.92 62.9522 24.76C62.9522 24.6 62.9922 24.52 63.0722 24.52C63.7922 24.52 64.3255 24.4533 64.6722 24.32C65.0189 24.16 65.2455 23.8933 65.3522 23.52C65.4855 23.1467 65.5522 22.56 65.5522 21.76V15.4C65.5522 13.8267 65.2722 12.6667 64.7122 11.92C64.1522 11.1467 63.2989 10.76 62.1522 10.76C61.3522 10.76 60.5522 10.9733 59.7522 11.4C58.9522 11.8267 58.2189 12.4267 57.5522 13.2V21.76C57.5522 22.56 57.6055 23.1467 57.7122 23.52C57.8455 23.8933 58.0855 24.16 58.4322 24.32C58.7789 24.4533 59.3122 24.52 60.0322 24.52C60.1122 24.52 60.1522 24.6 60.1522 24.76C60.1522 24.92 60.1122 25 60.0322 25C59.4189 25 58.9389 24.9867 58.5922 24.96L56.4322 24.92L54.2322 24.96C53.8855 24.9867 53.4055 25 52.7922 25C52.7122 25 52.6722 24.92 52.6722 24.76C52.6722 24.6 52.7122 24.52 52.7922 24.52C53.5122 24.52 54.0455 24.4533 54.3922 24.32C54.7389 24.16 54.9655 23.8933 55.0722 23.52C55.2055 23.1467 55.2722 22.56 55.2722 21.76V13.84C55.2722 12.9333 55.1655 12.28 54.9522 11.88C54.7389 11.48 54.3789 11.28 53.8722 11.28C53.4455 11.28 52.7255 11.48 51.7122 11.88H51.6322C51.5255 11.88 51.4455 11.8267 51.3922 11.72C51.3655 11.5867 51.4055 11.4933 51.5122 11.44L56.1522 9.24C56.2055 9.21333 56.2855 9.2 56.3922 9.2C56.6322 9.2 56.8855 9.50667 57.1522 10.12C57.4189 10.7333 57.5522 11.52 57.5522 12.48V12.52C58.5122 11.3467 59.4722 10.4933 60.4322 9.96C61.3922 9.42667 62.3922 9.16 63.4322 9.16C64.6322 9.16 65.6055 9.45333 66.3522 10.04C67.0989 10.6267 67.5655 11.5067 67.7522 12.68C68.7389 11.48 69.7255 10.6 70.7122 10.04C71.6989 9.45333 72.7255 9.16 73.7922 9.16C75.2055 9.16 76.2855 9.57333 77.0322 10.4C77.8055 11.2 78.1922 12.4 78.1922 14V21.76C78.1922 22.56 78.2455 23.1467 78.3522 23.52C78.4855 23.8933 78.7255 24.16 79.0722 24.32C79.4189 24.4533 79.9522 24.52 80.6722 24.52ZM98.1 22.84C98.2067 22.84 98.2733 22.9067 98.3 23.04C98.3267 23.1467 98.2867 23.2267 98.18 23.28L94.06 25.24C93.9533 25.2933 93.8467 25.32 93.74 25.32C93.3933 25.32 93.0867 25.0933 92.82 24.64C92.5533 24.1867 92.38 23.56 92.3 22.76L89.82 24.08C88.9933 24.5067 88.3133 24.8133 87.78 25C87.2467 25.1867 86.7267 25.28 86.22 25.28C85.3933 25.28 84.7533 25.0667 84.3 24.64C83.8733 24.1867 83.66 23.6267 83.66 22.96C83.66 22.24 83.9267 21.6667 84.46 21.24C85.02 20.7867 86.0067 20.32 87.42 19.84L92.26 18.12V14.8C92.26 13.04 92.0333 11.8133 91.58 11.12C91.1267 10.4 90.5 10.04 89.7 10.04C88.7933 10.04 88.0867 10.36 87.58 11C87.0733 11.64 86.7667 12.4133 86.66 13.32C86.5533 14.3333 86.06 14.84 85.18 14.84C84.7533 14.84 84.42 14.7333 84.18 14.52C83.94 14.3067 83.82 14.0133 83.82 13.64C83.82 13.0267 84.22 12.3733 85.02 11.68C85.82 10.9867 86.78 10.4 87.9 9.92C89.0467 9.44 90.0733 9.2 90.98 9.2C92.0467 9.2 92.9 9.57333 93.54 10.32C94.18 11.04 94.5 12.1333 94.5 13.6V20.68C94.5 21.6133 94.62 22.2933 94.86 22.72C95.1 23.1467 95.5 23.36 96.06 23.36C96.5667 23.36 97.22 23.1867 98.02 22.84H98.1ZM92.26 22.2V21.96V18.6L88.14 20.16C87.5267 20.4 87.0867 20.6667 86.82 20.96C86.58 21.2533 86.46 21.6267 86.46 22.08C86.46 22.64 86.62 23.08 86.94 23.4C87.26 23.6933 87.6733 23.84 88.18 23.84C88.6867 23.84 89.2333 23.7067 89.82 23.44L92.26 22.2Z" fill="#262B33"/>
</svg>
