<svg width="40" height="40" viewBox="0 0 40 40" fill="none" xmlns="http://www.w3.org/2000/svg">
<g clip-path="url(#clip0_55_40)">
<path d="M31.7162 29.4186H6.55399C6.06298 29.4186 5.59208 29.2227 5.24488 28.874C4.89769 28.5253 4.70264 28.0524 4.70264 27.5593V9.85536C4.70264 9.36225 4.89769 8.88933 5.24488 8.54065C5.59208 8.19197 6.06298 7.99608 6.55399 7.99608H23.9662V9.35322H6.55399C6.42138 9.35322 6.2942 9.40613 6.20043 9.5003C6.10667 9.59447 6.05399 9.72219 6.05399 9.85536V27.5593C6.05399 27.6925 6.10667 27.8202 6.20043 27.9144C6.2942 28.0085 6.42138 28.0614 6.55399 28.0614H31.7162C31.8488 28.0614 31.9759 28.0085 32.0697 27.9144C32.1635 27.8202 32.2161 27.6925 32.2161 27.5593V13.5468H33.5675V27.5593C33.5675 28.0524 33.3724 28.5253 33.0253 28.874C32.6781 29.2227 32.2072 29.4186 31.7162 29.4186Z" fill="#393E46"/>
<path d="M32.8852 23.6575H5.37842V25.0146H32.8852V23.6575Z" fill="#393E46"/>
<path d="M14.196 34.0261L13.6757 32.7707L13.9392 33.395L13.6689 32.7707C14.3666 32.4367 14.9201 31.8601 15.227 31.1477C15.5338 30.4353 15.5732 29.6354 15.3379 28.8961L16.6487 28.5839C16.9617 29.6356 16.8859 30.7654 16.4352 31.7654C15.9845 32.7654 15.1893 33.5682 14.196 34.0261Z" fill="#393E46"/>
<path d="M24.5946 34.0261C23.6042 33.5685 22.8112 32.7679 22.3607 31.7709C21.9103 30.7739 21.8326 29.6473 22.1419 28.5975L23.4933 28.9096C23.2574 29.6482 23.2959 30.4475 23.6014 31.1598C23.907 31.872 24.459 32.4491 25.1554 32.7843L24.5946 34.0261Z" fill="#393E46"/>
<path d="M27.5607 34.0736H10.7094C10.5302 34.0736 10.3583 34.0021 10.2316 33.8748C10.1049 33.7476 10.0337 33.575 10.0337 33.395C10.0337 33.215 10.1049 33.0424 10.2316 32.9152C10.3583 32.7879 10.5302 32.7164 10.7094 32.7164H27.5607C27.7399 32.7164 27.9118 32.7879 28.0385 32.9152C28.1652 33.0424 28.2364 33.215 28.2364 33.395C28.2364 33.575 28.1652 33.7476 28.0385 33.8748C27.9118 34.0021 27.7399 34.0736 27.5607 34.0736Z" fill="#393E46"/>
<path d="M13.8714 17.9236C13.266 17.9236 12.6742 17.7433 12.1709 17.4055C11.6675 17.0678 11.2752 16.5877 11.0435 16.026C10.8119 15.4643 10.7513 14.8462 10.8694 14.2499C10.9875 13.6537 11.279 13.1059 11.707 12.676C12.1351 12.2461 12.6805 11.9534 13.2742 11.8348C13.868 11.7162 14.4834 11.777 15.0427 12.0097C15.602 12.2424 16.08 12.6364 16.4163 13.1419C16.7527 13.6474 16.9322 14.2417 16.9322 14.8496C16.9322 15.6649 16.6097 16.4468 16.0357 17.0232C15.4617 17.5997 14.6831 17.9236 13.8714 17.9236ZM13.8714 13.1329C13.5333 13.1329 13.2028 13.2335 12.9216 13.4222C12.6405 13.6108 12.4214 13.879 12.292 14.1927C12.1626 14.5064 12.1288 14.8515 12.1947 15.1846C12.2607 15.5176 12.4235 15.8235 12.6626 16.0636C12.9017 16.3037 13.2063 16.4672 13.5379 16.5334C13.8695 16.5997 14.2132 16.5657 14.5255 16.4357C14.8379 16.3058 15.1049 16.0858 15.2927 15.8034C15.4806 15.5211 15.5808 15.1892 15.5808 14.8496C15.5808 14.3943 15.4007 13.9577 15.0801 13.6357C14.7595 13.3137 14.3247 13.1329 13.8714 13.1329Z" fill="#393E46"/>
<path d="M19.3784 25.0146H8.37842V24.3361C8.4284 22.9037 9.0301 21.5468 10.0567 20.5513C11.0833 19.5558 12.4547 18.9994 13.8818 18.9994C15.3089 18.9994 16.6802 19.5558 17.7069 20.5513C18.7335 21.5468 19.3352 22.9037 19.3852 24.3361L19.3784 25.0146ZM9.77707 23.6575H17.973C17.8102 22.6842 17.3092 21.8004 16.5589 21.1629C15.8087 20.5255 14.8578 20.1757 13.875 20.1757C12.8923 20.1757 11.9414 20.5255 11.1912 21.1629C10.4409 21.8004 9.93989 22.6842 9.77707 23.6575Z" fill="#393E46"/>
<path d="M26.0608 16.7768L25.6351 16.5868C25.5135 16.5213 25.4125 16.4232 25.3433 16.3034C25.274 16.1835 25.2394 16.0467 25.2432 15.9082V14.2118H24.5473C24.2145 14.21 23.8959 14.0765 23.6606 13.8401C23.4253 13.6038 23.2923 13.2838 23.2905 12.9496V6.10286C23.2905 5.76811 23.4229 5.44708 23.6586 5.21039C23.8943 4.97369 24.214 4.84071 24.5473 4.84071H35.1216C35.4549 4.84071 35.7746 4.97369 36.0103 5.21039C36.246 5.44708 36.3784 5.76811 36.3784 6.10286V12.9632C36.3766 13.2974 36.2436 13.6174 36.0083 13.8537C35.773 14.09 35.4544 14.2236 35.1216 14.2254H29.6554L26.0608 16.7768ZM24.6419 12.8682H26.6216V14.7071L29.2432 12.8479H35.0405V6.19786H24.6419V12.8682Z" fill="#393E46"/>
</g>
<defs>
<clipPath id="clip0_55_40">
<rect width="40" height="40" fill="white"/>
</clipPath>
</defs>
</svg>
