<svg width="40" height="40" viewBox="0 0 40 40" fill="none" xmlns="http://www.w3.org/2000/svg">
<path d="M19.9999 18.2687C18.7007 18.2687 17.4307 17.8835 16.3505 17.1617C15.2703 16.4399 14.4283 15.414 13.9312 14.2137C13.434 13.0135 13.3039 11.6927 13.5574 10.4185C13.8108 9.14428 14.4364 7.97384 15.3551 7.05519C16.2738 6.13653 17.4442 5.51092 18.7184 5.25746C19.9926 5.004 21.3134 5.13409 22.5137 5.63126C23.7139 6.12843 24.7398 6.97037 25.4616 8.05059C26.1834 9.13082 26.5687 10.4008 26.5687 11.7C26.567 13.4416 25.8744 15.1115 24.6429 16.343C23.4114 17.5745 21.7415 18.2671 19.9999 18.2687ZM19.9999 6.39374C18.948 6.39374 17.9196 6.70568 17.045 7.29011C16.1703 7.87455 15.4886 8.70522 15.086 9.6771C14.6835 10.649 14.5781 11.7184 14.7834 12.7501C14.9886 13.7819 15.4951 14.7296 16.239 15.4734C16.9828 16.2173 17.9305 16.7238 18.9623 16.929C19.994 17.1343 21.0634 17.0289 22.0353 16.6264C23.0072 16.2238 23.8379 15.5421 24.4223 14.6674C25.0067 13.7928 25.3187 12.7644 25.3187 11.7125C25.3195 11.0132 25.1826 10.3206 24.9157 9.67423C24.6489 9.02786 24.2573 8.44037 23.7634 7.94532C23.2695 7.45027 22.683 7.05734 22.0372 6.78898C21.3915 6.52061 20.6992 6.38206 19.9999 6.38124V6.39374Z" fill="#393E46"/>
<path d="M31.3189 35.4938H8.68141C8.2151 35.4937 7.75473 35.3892 7.33403 35.188C6.91334 34.9869 6.543 34.6941 6.25016 34.3313C5.95297 33.9627 5.74249 33.5321 5.63431 33.0712C5.52612 32.6103 5.52299 32.131 5.62516 31.6688C6.35139 28.3976 8.17159 25.4719 10.7852 23.375C13.3987 21.278 16.6493 20.1351 20.0002 20.1351C23.351 20.1351 26.6016 21.278 29.2152 23.375C31.8287 25.4719 33.6489 28.3976 34.3752 31.6688C34.4773 32.131 34.4742 32.6103 34.366 33.0712C34.2578 33.5321 34.0473 33.9627 33.7502 34.3313C33.4573 34.6941 33.087 34.9869 32.6663 35.188C32.2456 35.3892 31.7852 35.4937 31.3189 35.4938ZM20.0002 21.4063C16.9448 21.4256 13.9857 22.4771 11.6031 24.3899C9.22052 26.3028 7.5544 28.9648 6.87516 31.9438C6.81207 32.2214 6.81306 32.5098 6.87803 32.787C6.94301 33.0643 7.07027 33.323 7.25016 33.5438C7.42535 33.7616 7.64705 33.9375 7.89901 34.0587C8.15098 34.1798 8.42685 34.243 8.70641 34.2438H31.3189C31.5985 34.243 31.8743 34.1798 32.1263 34.0587C32.3783 33.9375 32.6 33.7616 32.7752 33.5438C32.9551 33.323 33.0823 33.0643 33.1473 32.787C33.2123 32.5098 33.2132 32.2214 33.1502 31.9438C32.4699 28.9606 30.8001 26.2955 28.4124 24.3822C26.0248 22.4689 23.0598 21.42 20.0002 21.4063Z" fill="#393E46"/>
</svg>
