<svg width="38" height="38" viewBox="0 0 38 38" fill="none" xmlns="http://www.w3.org/2000/svg">
<path d="M19 0C8.51657 0 0 8.51657 0 19C0 22.3697 0.924133 25.5144 2.46535 28.2596L0.0306556 36.9513C-0.00824099 37.0903 -0.00999847 37.2372 0.0255584 37.3772C0.0611152 37.5171 0.132744 37.6454 0.233303 37.749C0.333862 37.8527 0.459838 37.9282 0.59867 37.968C0.737502 38.0077 0.884339 38.0105 1.02454 37.9758L10.0873 35.7299C12.7503 37.1516 15.7721 38 19 38C29.4834 38 38 29.4834 38 19C38 8.51657 29.4834 0 19 0ZM19 1.65217C28.5905 1.65217 36.3478 9.40952 36.3478 19C36.3478 28.5905 28.5905 36.3478 19 36.3478C15.9253 36.3478 13.0457 35.5462 10.5423 34.1455C10.3592 34.0432 10.144 34.0143 9.94047 34.0648L2.00391 36.0316L4.13205 28.4387C4.1625 28.3314 4.17091 28.219 4.15677 28.1084C4.14262 27.9977 4.10623 27.8911 4.04976 27.7949C2.52839 25.2151 1.65217 22.2136 1.65217 19C1.65217 9.40952 9.40952 1.65217 19 1.65217ZM12.096 9.08696C11.5665 9.08696 10.8102 9.28397 10.1889 9.95338C9.81579 10.3555 8.26087 11.8705 8.26087 14.534C8.26087 17.3109 10.1868 19.707 10.4197 20.0149H10.4213V20.0165C10.3992 19.9874 10.7169 20.4475 11.1409 20.9991C11.5649 21.5507 12.1579 22.2751 12.9028 23.0594C14.3926 24.6281 16.4873 26.4409 19.0871 27.5497C20.2844 28.0595 21.2289 28.3673 21.9445 28.592C23.2707 29.0084 24.4787 28.9451 25.386 28.8114C26.0652 28.7114 26.8122 28.3853 27.5513 27.9175C28.2904 27.4498 29.0147 26.8682 29.3342 25.9846C29.563 25.3512 29.6793 24.7658 29.7214 24.2841C29.7424 24.0432 29.7451 23.8306 29.7294 23.6338C29.7138 23.437 29.7305 23.2863 29.5471 22.9852C29.1625 22.3538 28.727 22.3373 28.2725 22.1123C28.02 21.9874 27.3011 21.6363 26.58 21.2927C25.8597 20.9495 25.2361 20.6455 24.852 20.5086C24.6093 20.4213 24.313 20.2956 23.8855 20.344C23.458 20.3924 23.0358 20.7009 22.79 21.0652C22.557 21.4106 21.619 22.5178 21.333 22.8432C21.3293 22.8409 21.3541 22.8524 21.2411 22.7964C20.8874 22.6214 20.4549 22.4726 19.8148 22.1349C19.1747 21.7973 18.374 21.2987 17.4979 20.5263V20.5247C16.1938 19.3767 15.2804 17.9353 14.9922 17.4511C15.0116 17.428 14.9899 17.456 15.0309 17.4156L15.0325 17.414C15.327 17.1239 15.588 16.7774 15.8086 16.5234C16.1213 16.1631 16.2593 15.8455 16.4088 15.5488C16.7067 14.9575 16.5408 14.3068 16.3685 13.9644V13.9628C16.3804 13.9865 16.2752 13.7545 16.1619 13.4868C16.0483 13.2184 15.9035 12.8705 15.7489 12.4994C15.4396 11.7573 15.0943 10.9249 14.8889 10.4374V10.4358C14.647 9.86156 14.3197 9.44788 13.8918 9.2483C13.4639 9.04872 13.0859 9.10546 13.0706 9.1047H13.069C12.7636 9.09062 12.4285 9.08696 12.096 9.08696ZM12.096 10.7391C12.4145 10.7391 12.7285 10.743 12.9915 10.7553C13.262 10.7687 13.2452 10.7699 13.1932 10.7456C13.1403 10.7209 13.212 10.7129 13.3658 11.078C13.5669 11.5553 13.9139 12.3907 14.2242 13.1351C14.3793 13.5073 14.5245 13.8566 14.6405 14.1306C14.7564 14.4046 14.8192 14.5575 14.8922 14.7034V14.705L14.8938 14.7066C14.9653 14.8477 14.9589 14.7574 14.9341 14.8066C14.7598 15.1526 14.7361 15.2376 14.5598 15.4407C14.2913 15.75 14.0174 16.095 13.8725 16.2378C13.7456 16.3624 13.5168 16.5565 13.3739 16.9364C13.2308 17.3169 13.2976 17.839 13.5272 18.2288C13.8329 18.7477 14.8402 20.3873 16.4056 21.7655C17.3914 22.6345 18.3099 23.2097 19.0436 23.5967C19.7773 23.9838 20.3749 24.2098 20.5086 24.276C20.8261 24.4331 21.1731 24.5552 21.5767 24.5067C21.9802 24.4583 22.3281 24.2134 22.5496 23.963L22.5512 23.9614C22.846 23.6272 23.7218 22.6271 24.1421 22.0107C24.1599 22.017 24.154 22.0121 24.2937 22.0623V22.0639H24.2953C24.3591 22.0867 25.1579 22.4442 25.8701 22.7835C26.5823 23.1229 27.3051 23.4756 27.54 23.5919C27.879 23.7596 28.0391 23.8689 28.0805 23.8694C28.0833 23.9421 28.0861 24.0208 28.0757 24.1405C28.0467 24.4722 27.958 24.9315 27.7804 25.4231C27.6934 25.6638 27.2402 26.1602 26.6687 26.5219C26.0972 26.8836 25.4016 27.139 25.144 27.177C24.3695 27.2911 23.4499 27.3328 22.4399 27.0156C21.7396 26.7958 20.8664 26.5113 19.7357 26.0298C17.4427 25.0519 15.4937 23.3878 14.1016 21.922C13.4055 21.1891 12.8478 20.5068 12.451 19.9907C12.055 19.4755 11.882 19.2074 11.7379 19.0177L11.7362 19.0161C11.4803 18.6777 9.91304 16.4977 9.91304 14.534C9.91304 12.4557 10.8783 11.6408 11.4006 11.078C11.6749 10.7825 11.9746 10.7391 12.096 10.7391Z" fill="#F7F7F7"/>
</svg>
